<?xml version="1.0" encoding="utf-8"?>
<!-- Generator: Adobe Illustrator 27.5.0, SVG Export Plug-In . SVG Version: 6.00 Build 0)  -->
<svg version="1.1" id="Ñëîé_1" xmlns="http://www.w3.org/2000/svg" xmlns:xlink="http://www.w3.org/1999/xlink" x="0px" y="0px"
	 viewBox="0 0 2695.043 2200" style="enable-background:new 0 0 2695.043 2200;" xml:space="preserve">
<rect x="0" y="0" style="fill:#FFFFFF;" width="2695.043" height="2200"/>
<g>
	<path style="fill:#322A28;" d="M1033.016,312.601h65.551v19.874h-44.023v19.872h40.711v19.872h-40.711v38.089h-21.528V312.601z"/>
	<path style="fill:#322A28;" d="M1111.4,343.238h20.701v10.765h0.276c2.207-4.14,4.829-7.245,7.866-9.315
		c3.036-2.072,6.852-3.107,11.454-3.107c1.195,0,2.391,0.048,3.589,0.138c1.195,0.092,2.298,0.277,3.312,0.552v18.906
		c-1.473-0.458-2.922-0.804-4.347-1.035c-1.428-0.229-2.922-0.344-4.485-0.344c-3.957,0-7.086,0.552-9.385,1.656
		c-2.301,1.104-4.07,2.645-5.313,4.623c-1.242,1.979-2.048,4.348-2.414,7.106c-0.369,2.76-0.552,5.796-0.552,9.109v28.015H1111.4
		V343.238z"/>
	<path style="fill:#322A28;" d="M1162.601,376.774c0-5.334,0.966-10.165,2.898-14.491c1.931-4.323,4.576-8.026,7.935-11.109
		c3.357-3.082,7.314-5.45,11.867-7.106c4.554-1.656,9.406-2.485,14.56-2.485c5.152,0,10.005,0.829,14.56,2.485
		c4.554,1.656,8.509,4.024,11.868,7.106c3.357,3.084,6.003,6.787,7.935,11.109c1.931,4.326,2.898,9.157,2.898,14.491
		c0,5.336-0.967,10.167-2.898,14.489c-1.932,4.326-4.578,8.028-7.935,11.109c-3.36,3.084-7.314,5.452-11.868,7.108
		c-4.554,1.654-9.408,2.484-14.56,2.484c-5.154,0-10.005-0.829-14.56-2.484c-4.553-1.656-8.51-4.024-11.867-7.108
		c-3.36-3.082-6.004-6.783-7.935-11.109C1163.567,386.94,1162.601,382.11,1162.601,376.774z M1183.301,376.774
		c0,5.059,1.449,9.155,4.348,12.281c2.898,3.13,6.969,4.692,12.213,4.692s9.316-1.562,12.214-4.692
		c2.898-3.126,4.347-7.222,4.347-12.281c0-5.059-1.448-9.155-4.347-12.283c-2.898-3.126-6.97-4.692-12.214-4.692
		s-9.315,1.566-12.213,4.692C1184.751,367.619,1183.301,371.714,1183.301,376.774z"/>
	<path style="fill:#322A28;" d="M1249.264,343.238h19.873v9.109h0.276c0.643-1.287,1.563-2.574,2.76-3.865
		c1.195-1.287,2.622-2.435,4.278-3.449c1.656-1.012,3.541-1.839,5.659-2.483c2.115-0.643,4.416-0.968,6.899-0.968
		c5.244,0,9.475,0.808,12.697,2.416c3.219,1.61,5.727,3.842,7.522,6.693c1.794,2.853,3.012,6.21,3.657,10.075
		c0.642,3.865,0.966,8.053,0.966,12.558v36.985h-20.7v-32.845c0-1.931-0.069-3.932-0.208-6.002c-0.138-2.07-0.552-3.978-1.242-5.727
		c-0.69-1.747-1.749-3.174-3.174-4.278c-1.427-1.104-3.473-1.656-6.141-1.656c-2.669,0-4.829,0.483-6.486,1.448
		c-1.656,0.966-2.922,2.257-3.794,3.865c-0.876,1.61-1.45,3.428-1.726,5.45c-0.276,2.026-0.414,4.142-0.414,6.348v33.397h-20.701
		V343.238z"/>
	<path style="fill:#322A28;" d="M1374.156,359.799h-18.216v22.355c0,1.843,0.09,3.52,0.276,5.038
		c0.183,1.518,0.597,2.83,1.242,3.932c0.642,1.104,1.632,1.956,2.967,2.555c1.332,0.598,3.105,0.896,5.313,0.896
		c1.104,0,2.553-0.115,4.347-0.344c1.794-0.229,3.151-0.76,4.071-1.587v17.25c-2.301,0.827-4.692,1.379-7.176,1.656
		c-2.484,0.275-4.923,0.414-7.314,0.414c-3.497,0-6.717-0.369-9.661-1.104c-2.945-0.735-5.52-1.908-7.728-3.518
		c-2.208-1.61-3.933-3.703-5.176-6.279c-1.242-2.576-1.862-5.704-1.862-9.386v-31.878h-13.249v-16.561h13.249v-19.872h20.7v19.872
		h18.216V359.799z"/>
	<path style="fill:#322A28;" d="M1428.941,312.601h66.379v19.874h-44.851v18.216h42.368v19.872h-42.368v19.874h47.336v19.872
		h-68.864V312.601z"/>
	<path style="fill:#322A28;" d="M1512.431,343.238h19.873v9.109h0.276c0.642-1.287,1.563-2.574,2.76-3.865
		c1.195-1.287,2.622-2.435,4.278-3.449c1.656-1.012,3.541-1.839,5.659-2.483c2.115-0.643,4.416-0.968,6.899-0.968
		c5.244,0,9.475,0.808,12.696,2.416c3.219,1.61,5.727,3.842,7.522,6.693c1.794,2.853,3.012,6.21,3.657,10.075
		c0.643,3.865,0.966,8.053,0.966,12.558v36.985h-20.7v-32.845c0-1.931-0.069-3.932-0.208-6.002c-0.138-2.07-0.552-3.978-1.242-5.727
		c-0.69-1.747-1.749-3.174-3.174-4.278c-1.427-1.104-3.473-1.656-6.141-1.656c-2.669,0-4.829,0.483-6.486,1.448
		c-1.656,0.966-2.922,2.257-3.795,3.865c-0.876,1.61-1.449,3.428-1.726,5.45c-0.276,2.026-0.414,4.142-0.414,6.348v33.397h-20.701
		V343.238z"/>
	<path style="fill:#322A28;" d="M1662.027,410.308h-19.045v-8.832h-0.277c-0.827,1.197-1.912,2.414-3.243,3.657
		c-1.335,1.241-2.897,2.37-4.694,3.38c-1.793,1.014-3.771,1.841-5.933,2.485c-2.162,0.642-4.394,0.966-6.694,0.966
		c-4.967,0-9.476-0.852-13.524-2.553c-4.048-1.702-7.521-4.094-10.419-7.177c-2.898-3.08-5.13-6.739-6.693-10.971
		c-1.566-4.23-2.346-8.878-2.346-13.937c0-4.692,0.711-9.178,2.139-13.456c1.424-4.278,3.449-8.074,6.071-11.385
		c2.623-3.313,5.818-5.956,9.593-7.935c3.771-1.978,8.049-2.968,12.835-2.968c4.321,0,8.349,0.669,12.073,2.003
		c3.728,1.335,6.783,3.611,9.176,6.831h0.277v-44.438h20.703V410.308z M1642.982,376.774c0-5.059-1.45-9.155-4.348-12.283
		c-2.901-3.126-6.972-4.692-12.216-4.692s-9.315,1.566-12.212,4.692c-2.897,3.128-4.348,7.223-4.348,12.283
		c0,5.059,1.451,9.155,4.348,12.281c2.897,3.13,6.968,4.692,12.212,4.692s9.315-1.562,12.216-4.692
		C1641.532,385.929,1642.982,381.833,1642.982,376.774z"/>
</g>
<g>
	<path style="fill:#E5F0F8;" d="M2254.927,2023.447c0,0,649.743-1563.258-542.606-1457.442
		c-510.69,45.322-415.354,320.278-640.904,577.542c-146.199,166.756-427.382,30.339-532.754,176.056s18.457,561.208,61.894,703.845
		H2254.927z"/>
	<g>
		<path style="fill:#40A87B;" d="M474.081,2015.884c0,0-43.814-174.77-153.03-228.707
			c-109.216-53.937-225.783,19.906-196.183,97.556c25.523,66.956,130.474-15.373,212.132,17.003
			c81.658,32.376,94.53,114.148,94.53,114.148H474.081z"/>
		<path style="fill:none;stroke:#6ADB6A;stroke-width:4.9213;stroke-miterlimit:10;" d="M145.979,1838.168
			c0,0,117.217-66.801,204.184-5.042c86.968,61.76,114.49,182.758,114.49,182.758"/>
		
			<line style="fill:none;stroke:#6ADB6A;stroke-width:4.9213;stroke-miterlimit:10;" x1="164.885" y1="1806.926" x2="192.157" y2="1818.816"/>
		
			<line style="fill:none;stroke:#6ADB6A;stroke-width:4.9213;stroke-miterlimit:10;" x1="204.273" y1="1781.45" x2="258.592" y2="1806.926"/>
		
			<line style="fill:none;stroke:#6ADB6A;stroke-width:4.9213;stroke-miterlimit:10;" x1="285.884" y1="1781.45" x2="314.143" y2="1814.833"/>
		
			<line style="fill:none;stroke:#6ADB6A;stroke-width:4.9213;stroke-miterlimit:10;" x1="339.451" y1="1803.822" x2="352.154" y2="1834.565"/>
		
			<line style="fill:none;stroke:#6ADB6A;stroke-width:4.9213;stroke-miterlimit:10;" x1="178.521" y1="1880.706" x2="220.387" y2="1811.444"/>
		
			<line style="fill:none;stroke:#6ADB6A;stroke-width:4.9213;stroke-miterlimit:10;" x1="252.483" y1="1870.781" x2="290.881" y2="1809.114"/>
		
			<line style="fill:none;stroke:#6ADB6A;stroke-width:4.9213;stroke-miterlimit:10;" x1="317.709" y1="1861.328" x2="375.435" y2="1854.154"/>
		
			<line style="fill:none;stroke:#6ADB6A;stroke-width:4.9213;stroke-miterlimit:10;" x1="384.913" y1="1896.304" x2="418.001" y2="1907.167"/>
	</g>
	<g>
		<path style="fill:#6ADB6A;" d="M511.657,2016.393c0,0,30.916-585.821-248.893-510.329s218.266,391.221,217.842,510.329H511.657z"
			/>
		<path style="fill:none;stroke:#40A87B;stroke-width:4.9213;stroke-miterlimit:10;" d="M500.349,2016.393
			c0,0-9.77-306.072-209.226-457.414"/>
		
			<line style="fill:none;stroke:#40A87B;stroke-width:4.9213;stroke-miterlimit:10;" x1="378.604" y1="1647.727" x2="373.621" y2="1542.183"/>
		
			<line style="fill:none;stroke:#40A87B;stroke-width:4.9213;stroke-miterlimit:10;" x1="222.116" y1="1603.994" x2="356.932" y2="1621.566"/>
		
			<line style="fill:none;stroke:#40A87B;stroke-width:4.9213;stroke-miterlimit:10;" x1="274.545" y1="1694.072" x2="417.088" y2="1710.68"/>
		
			<line style="fill:none;stroke:#40A87B;stroke-width:4.9213;stroke-miterlimit:10;" x1="345.817" y1="1783.339" x2="455.914" y2="1798.898"/>
		
			<line style="fill:none;stroke:#40A87B;stroke-width:4.9213;stroke-miterlimit:10;" x1="466.476" y1="1699.931" x2="441.241" y2="1761.241"/>
		
			<line style="fill:none;stroke:#40A87B;stroke-width:4.9213;stroke-miterlimit:10;" x1="425.01" y1="1600.426" x2="403.496" y2="1686.743"/>
		
			<line style="fill:none;stroke:#40A87B;stroke-width:4.9213;stroke-miterlimit:10;" x1="490.034" y1="1802.283" x2="469.929" y2="1842.355"/>
		
			<line style="fill:none;stroke:#40A87B;stroke-width:4.9213;stroke-miterlimit:10;" x1="403.496" y1="1866.091" x2="482.39" y2="1890.964"/>
	</g>
	<g>
		<path style="fill:#40A87B;" d="M2316.58,2016.875c0,0,31.975-127.548,111.682-166.911
			c79.706-39.364,164.777,14.528,143.175,71.196c-18.627,48.865-95.221-11.219-154.815,12.409
			c-59.594,23.628-68.988,83.306-68.988,83.306H2316.58z"/>
		<path style="fill:none;stroke:#6ADB6A;stroke-width:3.5916;stroke-miterlimit:10;" d="M2556.03,1887.177
			c0,0-85.546-48.752-149.015-3.679c-63.469,45.072-83.555,133.377-83.555,133.377"/>
		
			<line style="fill:none;stroke:#6ADB6A;stroke-width:3.5916;stroke-miterlimit:10;" x1="2542.232" y1="1864.376" x2="2522.329" y2="1873.053"/>
		
			<line style="fill:none;stroke:#6ADB6A;stroke-width:3.5916;stroke-miterlimit:10;" x1="2513.487" y1="1845.784" x2="2473.844" y2="1864.376"/>
		
			<line style="fill:none;stroke:#6ADB6A;stroke-width:3.5916;stroke-miterlimit:10;" x1="2453.927" y1="1845.784" x2="2433.303" y2="1870.146"/>
		
			<line style="fill:none;stroke:#6ADB6A;stroke-width:3.5916;stroke-miterlimit:10;" x1="2414.834" y1="1862.111" x2="2405.563" y2="1884.547"/>
		
			<line style="fill:none;stroke:#6ADB6A;stroke-width:3.5916;stroke-miterlimit:10;" x1="2532.281" y1="1918.221" x2="2501.727" y2="1867.674"/>
		
			<line style="fill:none;stroke:#6ADB6A;stroke-width:3.5916;stroke-miterlimit:10;" x1="2478.303" y1="1910.978" x2="2450.28" y2="1865.973"/>
		
			<line style="fill:none;stroke:#6ADB6A;stroke-width:3.5916;stroke-miterlimit:10;" x1="2430.701" y1="1904.079" x2="2388.572" y2="1898.844"/>
		
			<line style="fill:none;stroke:#6ADB6A;stroke-width:3.5916;stroke-miterlimit:10;" x1="2381.655" y1="1929.604" x2="2357.507" y2="1937.533"/>
	</g>
	<g>
		<path style="fill:#6ADB6A;" d="M2289.157,2017.246c0,0-22.562-427.535,181.643-372.44
			c204.205,55.094-159.292,285.515-158.982,372.44H2289.157z"/>
		<path style="fill:none;stroke:#40A87B;stroke-width:3.5916;stroke-miterlimit:10;" d="M2297.409,2017.246
			c0,0,7.13-223.373,152.694-333.823"/>
		
			<line style="fill:none;stroke:#40A87B;stroke-width:3.5916;stroke-miterlimit:10;" x1="2386.259" y1="1748.192" x2="2389.896" y2="1671.166"/>
		
			<line style="fill:none;stroke:#40A87B;stroke-width:3.5916;stroke-miterlimit:10;" x1="2500.465" y1="1716.276" x2="2402.076" y2="1729.1"/>
		
			<line style="fill:none;stroke:#40A87B;stroke-width:3.5916;stroke-miterlimit:10;" x1="2462.202" y1="1782.015" x2="2358.173" y2="1794.135"/>
		
			<line style="fill:none;stroke:#40A87B;stroke-width:3.5916;stroke-miterlimit:10;" x1="2410.188" y1="1847.162" x2="2329.838" y2="1858.517"/>
		
			<line style="fill:none;stroke:#40A87B;stroke-width:3.5916;stroke-miterlimit:10;" x1="2322.13" y1="1786.291" x2="2340.546" y2="1831.035"/>
		
			<line style="fill:none;stroke:#40A87B;stroke-width:3.5916;stroke-miterlimit:10;" x1="2352.392" y1="1713.671" x2="2368.093" y2="1776.666"/>
		
			<line style="fill:none;stroke:#40A87B;stroke-width:3.5916;stroke-miterlimit:10;" x1="2304.938" y1="1860.988" x2="2319.61" y2="1890.233"/>
		
			<line style="fill:none;stroke:#40A87B;stroke-width:3.5916;stroke-miterlimit:10;" x1="2368.093" y1="1907.555" x2="2310.516" y2="1925.708"/>
	</g>
	<g>
		<path style="fill:#BBDBF3;" d="M326.938,603.88v-4.89l28.23-15.278v7.469l-18.857,10.254l18.857,10.254v7.469L326.938,603.88z"/>
		<path style="fill:#BBDBF3;" d="M877,1009.757v-7.469l18.857-10.254L877,981.779v-7.469l28.231,15.278v4.89L877,1009.757z"/>
		<rect x="365.639" y="595.668" style="fill:#BBDBF3;" width="112.269" height="11.534"/>
		<rect x="326.938" y="640.241" style="fill:#BBDBF3;" width="112.269" height="11.534"/>
		<rect x="350.853" y="671.291" style="fill:#BBDBF3;" width="112.269" height="11.534"/>
		<rect x="350.853" y="756.751" style="fill:#BBDBF3;" width="112.269" height="11.534"/>
		<rect x="350.853" y="783.186" style="fill:#BBDBF3;" width="112.269" height="11.534"/>
		<rect x="389.431" y="700.864" style="fill:#BBDBF3;" width="338.58" height="11.534"/>
		<rect x="389.431" y="811.273" style="fill:#BBDBF3;" width="452.314" height="11.534"/>
		<rect x="389.431" y="899.701" style="fill:#BBDBF3;" width="452.314" height="11.534"/>
		<rect x="431.972" y="986.267" style="fill:#BBDBF3;" width="433.338" height="11.534"/>
		<rect x="389.431" y="929.748" style="fill:#BBDBF3;" width="96.88" height="11.534"/>
		<rect x="389.431" y="958.328" style="fill:#BBDBF3;" width="96.88" height="11.534"/>
		<rect x="389.431" y="839.501" style="fill:#BBDBF3;" width="452.314" height="11.534"/>
		<rect x="389.431" y="867.729" style="fill:#BBDBF3;" width="244.722" height="11.534"/>
		<rect x="389.431" y="727.445" style="fill:#BBDBF3;" width="103.82" height="11.534"/>
	</g>
	<g>
		<path style="fill:#93ACBF;" d="M2170.471,988.203v961.506c0,34.94-28.324,63.264-63.264,63.264H734.423
			c-34.94,0-63.264-28.324-63.264-63.264V988.203c0-34.94,28.324-63.264,63.264-63.264h1372.785
			C2142.147,924.938,2170.471,953.263,2170.471,988.203z"/>
		<path style="fill:#E5F0F8;" d="M2037.858,987.978v961.989c0,0.775-0.129,1.55-0.388,2.26c-0.903,3.358-4.003,5.812-7.684,5.812
			H734.198c-4.522,0-8.137-3.616-8.137-8.072V987.978c0-4.52,3.615-8.136,8.137-8.136h1295.588
			C2034.241,979.842,2037.858,983.458,2037.858,987.978z"/>
		<rect x="772.183" y="1025.96" style="fill:#FFFFFF;" width="1219.547" height="885.968"/>
		<path style="fill:#BBDBF3;" d="M2104.357,1576.05L2104.357,1576.05c-15.356,0-27.919-12.564-27.919-27.919v-158.35
			c0-15.356,12.564-27.92,27.919-27.92l0,0c15.356,0,27.92,12.564,27.92,27.92v158.35
			C2132.276,1563.486,2119.713,1576.05,2104.357,1576.05z"/>
		<rect x="772.183" y="1025.96" style="fill:#BBDBF3;" width="1219.547" height="83.497"/>
		<g>
			
				<line style="fill:none;stroke:#FFFFFF;stroke-width:7.7028;stroke-linecap:round;stroke-linejoin:round;stroke-miterlimit:10;" x1="1914.64" y1="1091.726" x2="1962.675" y2="1043.692"/>
			
				<line style="fill:none;stroke:#FFFFFF;stroke-width:7.7028;stroke-linecap:round;stroke-linejoin:round;stroke-miterlimit:10;" x1="1962.675" y1="1091.726" x2="1914.64" y2="1043.692"/>
		</g>
		<rect x="772.183" y="1109.457" style="fill:#E5F0F8;" width="289.086" height="802.471"/>
		<rect x="801.021" y="1154.462" style="fill:#FFFFFF;" width="231.411" height="18.645"/>
		<rect x="801.021" y="1203.731" style="fill:#FFFFFF;" width="231.411" height="18.645"/>
		<rect x="801.021" y="1253.001" style="fill:#FFFFFF;" width="231.411" height="18.645"/>
		<rect x="801.021" y="1302.27" style="fill:#FFFFFF;" width="231.411" height="18.645"/>
		<rect x="801.021" y="1351.54" style="fill:#FFFFFF;" width="231.411" height="18.645"/>
		<rect x="801.021" y="1400.809" style="fill:#FFFFFF;" width="231.411" height="18.645"/>
		<rect x="801.021" y="1450.078" style="fill:#FFFFFF;" width="231.411" height="18.645"/>
		<rect x="801.021" y="1499.348" style="fill:#FFFFFF;" width="231.411" height="18.645"/>
		<rect x="801.021" y="1548.617" style="fill:#FFFFFF;" width="231.411" height="18.645"/>
		<rect x="801.021" y="1597.887" style="fill:#FFFFFF;" width="231.411" height="18.644"/>
		<rect x="801.021" y="1647.156" style="fill:#FFFFFF;" width="231.411" height="18.645"/>
		<rect x="801.021" y="1696.426" style="fill:#FFFFFF;" width="231.411" height="18.645"/>
		
			<rect x="1093.423" y="1607.209" style="fill:none;stroke:#BBDBF3;stroke-width:3.6097;stroke-linecap:round;stroke-linejoin:round;stroke-miterlimit:10;stroke-dasharray:14.4389;" width="371.02" height="285.218"/>
		
			<rect x="1186.298" y="1130.781" style="fill:none;stroke:#BBDBF3;stroke-width:3.6248;stroke-miterlimit:10;" width="590.693" height="47.362"/>
		
			<rect x="1682.557" y="1130.781" style="fill:#BBDBF3;stroke:#BBDBF3;stroke-width:2.5342;stroke-miterlimit:10;" width="94.433" height="47.362"/>
		
			<rect x="1867.424" y="1130.781" style="fill:#BBDBF3;stroke:#BBDBF3;stroke-width:2.5342;stroke-miterlimit:10;" width="94.433" height="47.362"/>
		<path style="fill:#FFFFFF;" d="M1713.449,1164.09c6.799,3.799,15.183,1.927,19.875-3.986l25.239,14.102l2.444-4.374l-25.236-14.1
			c2.595-7.098-0.216-15.212-7.026-19.017c-7.554-4.221-17.121-1.54-21.342,6.014S1705.895,1159.869,1713.449,1164.09z
			 M1727.083,1139.69c5.883,3.287,8.007,10.79,4.72,16.672c-3.306,5.916-10.79,8.006-16.672,4.719
			c-5.916-3.305-8.025-10.756-4.719-16.672C1713.698,1138.527,1721.167,1136.385,1727.083,1139.69z"/>
		
			<rect x="1093.423" y="1213.053" style="fill:none;stroke:#BBDBF3;stroke-width:3.6097;stroke-linecap:round;stroke-linejoin:round;stroke-miterlimit:10;stroke-dasharray:14.4389;" width="868.433" height="373.898"/>
		<g>
			<rect x="1493.932" y="1817.438" style="fill:#E5F0F8;" width="467.925" height="74.989"/>
			<polygon style="fill:#FFFFFF;" points="1568.493,1854.932 1520.467,1827.204 1520.467,1882.66 			"/>
			
				<line style="fill:none;stroke:#FFFFFF;stroke-width:3.0503;stroke-miterlimit:10;" x1="1589.896" y1="1854.932" x2="1931.255" y2="1854.932"/>
			<rect x="1589.896" y="1842.32" style="fill:#FFFFFF;" width="6.306" height="25.225"/>
		</g>
		<g>
			<rect x="1493.932" y="1712.323" style="fill:#E5F0F8;" width="467.925" height="74.989"/>
			<polygon style="fill:#FFFFFF;" points="1568.493,1749.818 1520.467,1722.09 1520.467,1777.546 			"/>
			
				<line style="fill:none;stroke:#FFFFFF;stroke-width:3.0503;stroke-miterlimit:10;" x1="1589.896" y1="1749.818" x2="1931.255" y2="1749.818"/>
			<rect x="1589.896" y="1737.205" style="fill:#FFFFFF;" width="6.306" height="25.225"/>
		</g>
		<g>
			<rect x="1493.932" y="1607.209" style="fill:#E5F0F8;" width="467.925" height="74.989"/>
			<polygon style="fill:#FFFFFF;" points="1568.493,1644.703 1520.467,1616.975 1520.467,1672.432 			"/>
			
				<line style="fill:none;stroke:#FFFFFF;stroke-width:3.0503;stroke-miterlimit:10;" x1="1589.896" y1="1644.703" x2="1931.255" y2="1644.703"/>
			<rect x="1589.896" y="1632.091" style="fill:#FFFFFF;" width="6.306" height="25.225"/>
		</g>
	</g>
	<g>
		<path style="fill:#0775EF;" d="M1596.827,561.789H840.862c-8.95,0-16.205,7.255-16.205,16.206v37.521v333.819h788.375V615.515
			v-37.521C1613.032,569.044,1605.776,561.789,1596.827,561.789z"/>
		<rect x="833.464" y="606.464" style="fill:#FFFFFF;" width="770.762" height="333.401"/>
		<rect x="858.889" y="636.335" style="fill:#E5F0F8;" width="119.226" height="119.226"/>
		<rect x="858.889" y="788.106" style="fill:#F9E181;" width="119.226" height="119.226"/>
		<rect x="1005.086" y="636.335" style="fill:#BBDBF3;" width="119.226" height="119.226"/>
		<rect x="1005.086" y="788.106" style="fill:#0775EF;" width="119.226" height="119.226"/>
		<rect x="1151.284" y="636.335" style="fill:#93ACBF;" width="119.226" height="119.226"/>
		<rect x="1151.284" y="788.106" style="fill:#2EC6FC;" width="119.226" height="119.226"/>
		<rect x="1297.481" y="636.335" style="fill:#586773;" width="119.226" height="119.226"/>
		<rect x="1297.481" y="788.106" style="fill:#6ADB6A;" width="119.226" height="119.226"/>
		<rect x="1443.679" y="636.335" style="fill:#F9ECB8;" width="119.226" height="119.226"/>
		<g>
			<path style="fill:#FFFFFF;stroke:#586773;stroke-width:1.8461;stroke-miterlimit:10;" d="M1555.765,793.006
				c-6.271-6.271-16.48-6.141-22.588,0.29l-84.165,88.597c-1.952,2.056-2.047,5.186-0.355,7.372l-7.064,10.462l7.451,7.451
				l10.462-7.064c2.186,1.691,5.317,1.597,7.371-0.356l88.598-84.164C1561.906,809.486,1562.037,799.278,1555.765,793.006z"/>
			<path style="fill:#FFFFFF;stroke:#586773;stroke-width:1.5194;stroke-miterlimit:10;" d="M1532.886,842.643l-26.758-26.758
				c-3.888-3.888-3.888-10.193,0-14.081l0,0c3.888-3.888,10.193-3.888,14.081,0l26.758,26.758c3.888,3.888,3.888,10.193,0,14.081
				l0,0C1543.078,846.532,1536.774,846.532,1532.886,842.643z"/>
		</g>
	</g>
	<g>
		<path style="fill:#FFFFFF;" d="M2188.318,805.38l-199.081,311.953c-6.458,10.177-19.266,13.759-30.029,9.032l-35.924,39.837
			l-38.33-23.13l18.436-50.375c-9.238-7.26-12.026-20.305-6.084-30.76l182.826-321.78L2188.318,805.38z"/>
		<path style="fill:#586773;" d="M2268.567,679.609l-34.708,54.41l-45.541,71.361l-108.186-65.224l41.785-73.559l31.879-56.147
			c18.613-32.78,60.595-43.76,92.895-24.297C2278.944,605.589,2288.852,647.837,2268.567,679.609z"/>
		<path style="fill:#586773;" d="M2261.164,799.874c-6.046,10.034-15.549,16.617-26.04,19.219
			c-10.529,2.611-22.045,1.24-32.04-4.816l-14.765-8.897l-108.186-65.224l-14.765-8.896c-20.011-12.026-26.467-38.061-14.394-58.043
			c6.018-9.986,15.511-16.608,26.04-19.219c10.529-2.611,22.016-1.192,32.002,4.825l12.901,7.774l111.942,67.421l12.901,7.774
			C2266.78,753.857,2273.227,779.853,2261.164,799.874z"/>
		<path style="fill:#BBDBF3;stroke:#BBDBF3;stroke-width:2.4579;stroke-miterlimit:10;" d="M1907.026,1067.465
			c-3.105,5.466-1.699,12.531,3.271,16.437l6.383,5.016l-18.059,49.343l22.539,13.598l35.151-38.976l7.392,3.244
			c1.683,0.74,3.463,1.117,5.289,1.117c4.422,0,8.459-2.207,10.817-5.928l49.339-77.312l-77.292-45.442L1907.026,1067.465z"/>
	</g>
	<path style="fill:#FFFFFF;" d="M2360.589,1376.099c-8.439-5.085-19.408-2.216-24.271,6.348l-8.329,14.67l-3.371-2.031
		c-2.609-1.572-5.61-1.943-8.361-1.261c-2.751,0.682-5.231,2.412-6.804,5.021c-3.154,5.221-1.468,12.023,3.761,15.165l3.857,2.324
		l-47.767,84.072c-1.552,2.732-0.824,6.14,1.589,8.037l-4.817,13.161l10.015,6.043l9.386-10.408c2.812,1.235,6.158,0.299,7.846-2.36
		l52.015-81.505l3.858,2.324c2.611,1.582,5.62,1.94,8.371,1.258c2.741-0.68,5.224-2.4,6.804-5.021
		c3.152-5.231,1.468-12.023-3.763-15.175l-3.371-2.031l9.068-14.216C2371.604,1392.215,2369.015,1381.177,2360.589,1376.099z"/>
	<g>
		<path style="fill:#088CFC;" d="M438.475,2012.967H840.58v-54.523c0-7.731-6.267-13.999-13.999-13.999H452.474
			c-7.731,0-13.999,6.267-13.999,13.999V2012.967z"/>
		<path style="fill:#088CFC;" d="M728.818,1570.327L728.818,1570.327c-17.418,5.187-35.703-4.926-40.567-22.437l-121.538-437.534
			c-3.514-12.652,3.751-25.788,16.336-29.536h0c12.585-3.748,25.853,3.274,29.833,15.787l137.62,432.744
			C756.01,1546.671,746.236,1565.14,728.818,1570.327z"/>
		<rect x="471.552" y="1722.163" style="fill:#2EC6FC;" width="335.977" height="222.275"/>
		<polygon style="fill:#0775EF;" points="471.545,1722.166 807.51,1722.166 776.049,1674.231 503.006,1674.231 		"/>
		<path style="fill:#0775EF;" d="M679.657,1550.277c3,10.793,10.053,19.727,19.855,25.148c9.802,5.421,21.115,6.647,31.852,3.449
			c2.886-0.859,5.675-2.032,8.286-3.48c17.169-9.517,25.305-30.017,19.35-48.745l-46.08-144.899
			c-0.878-2.762-3.825-4.292-6.59-3.422l-63.605,20.02c-2.704,0.851-4.246,3.692-3.488,6.423L679.657,1550.277z"/>
		
			<rect x="601.756" y="1615.267" transform="matrix(-1 -1.224647e-16 1.224647e-16 -1 1279.0553 3274.8638)" style="fill:#0775EF;" width="75.543" height="44.329"/>
		
			<rect x="555.098" y="1648.779" transform="matrix(-1 -1.224647e-16 1.224647e-16 -1 1279.0553 3323.0103)" style="fill:#088CFC;" width="168.859" height="25.452"/>
		<polygon style="fill:#088CFC;" points="718.075,1722.163 807.52,1877.079 807.52,1780.304 773.951,1722.163 		"/>
		<polygon style="fill:#088CFC;" points="604.343,1722.163 732.674,1944.438 788.518,1944.438 660.187,1722.163 		"/>
		<polygon style="fill:#088CFC;" points="490.547,1722.163 618.909,1944.438 674.753,1944.438 546.422,1722.163 		"/>
		<polygon style="fill:#088CFC;" points="471.552,1791.032 471.552,1887.776 504.272,1944.438 560.115,1944.438 		"/>
		<path style="fill:#2EC6FC;" d="M569.723,1589.408c9.472,46.804,125.576,76.941,176.499-8.79
			c46.631-78.506-30.504-105.297-52.513-71.034c-27.301,42.5-36.808,34.093-82.244,32.045
			C584.185,1540.399,563.951,1560.884,569.723,1589.408z"/>
		<path style="fill:#322A28;" d="M736.839,1547.49c-0.189,1.856-0.535,3.87-1.039,6.009c0,0.063-0.031,0.126-0.031,0.189
			c-0.472,2.045-1.07,3.996-1.762,5.852c-0.786,2.14-1.699,4.121-2.706,6.009c-1.196,2.171-2.517,4.184-3.996,6.041
			c-1.762,2.265-3.712,4.247-5.789,6.009c-2.926,2.485-6.103,4.468-9.375,6.041c-12.616,5.946-26.931,5.349-35.142,0
			c-2.234-1.447-4.027-3.272-5.191-5.38c-0.126-0.22-0.251-0.441-0.346-0.661c-1.038-2.014-1.668-4.059-1.856-6.009
			c-0.251-2.139-0.031-4.153,0.567-6.041c0.723-2.265,2.013-4.31,3.775-6.009c2.013-1.982,4.688-3.492,7.834-4.342
			c2.517-0.692,4.782-1.227,6.89-1.699c7.079-1.573,11.956-2.485,15.668-6.009c1.573-1.479,2.958-3.398,4.185-6.041
			c0.787-1.699,1.51-3.681,2.202-6.009c0.189-0.629,0.378-1.29,0.566-1.982c0.409-1.51,1.038-2.863,1.888-4.027
			c4.467-6.387,14.221-6.953,19.789,0c1.29,1.573,2.328,3.586,3.052,6.009c0.535,1.762,0.913,3.775,1.007,6.009
			C737.153,1543.305,737.091,1545.287,736.839,1547.49z"/>
		<path style="fill:#2EC6FC;" d="M721.517,1577.598c-2.926,2.485-6.103,4.468-9.375,6.041h-35.142
			c-2.234-1.447-4.027-3.272-5.191-5.38c-0.126-0.22-0.251-0.441-0.346-0.661H721.517z"/>
		<path style="fill:#2EC6FC;" d="M731.302,1565.548c-1.196,2.171-2.517,4.184-3.996,6.041h-57.701
			c-0.251-2.139-0.031-4.153,0.567-6.041H731.302z"/>
		<path style="fill:#2EC6FC;" d="M735.8,1553.499c0,0.063-0.031,0.126-0.031,0.189c-0.472,2.045-1.07,3.996-1.762,5.852h-60.06
			c2.013-1.982,4.688-3.492,7.834-4.342c2.517-0.692,4.782-1.227,6.89-1.699H735.8z"/>
		<path style="fill:#2EC6FC;" d="M736.839,1547.49h-32.5c1.573-1.479,2.958-3.398,4.185-6.041h28.504
			C737.153,1543.305,737.091,1545.287,736.839,1547.49z"/>
		<path style="fill:#2EC6FC;" d="M736.021,1535.44h-25.295c0.189-0.629,0.378-1.29,0.566-1.982c0.409-1.51,1.038-2.863,1.888-4.027
			h19.789C734.259,1531.004,735.297,1533.017,736.021,1535.44z"/>
		
			<ellipse transform="matrix(0.9148 -0.4038 0.4038 0.9148 -396.2061 332.5027)" style="fill:#0775EF;" cx="590.192" cy="1105.574" rx="41.147" ry="41.147"/>
		<path style="fill:none;stroke:#000000;stroke-width:0.3884;stroke-miterlimit:10;" d="M598.91,1100.741
			c2.669,4.815,0.929,10.882-3.886,13.552s-10.883,0.929-13.552-3.886c-2.669-4.815-0.929-10.883,3.886-13.552
			C590.174,1094.186,596.241,1095.925,598.91,1100.741z"/>
		<path style="fill:#2EC6FC;" d="M570.897,1105.884L570.897,1105.884c1.504,10.767,11.543,18.345,22.31,16.842l379.927-53.061
			c10.767-1.504,18.345-11.543,16.842-22.309l0,0c-1.504-10.767-11.543-18.345-22.31-16.842l-379.927,53.061
			C576.972,1085.078,569.393,1095.117,570.897,1105.884z"/>
		<path style="fill:#0775EF;" d="M1059.062,1035.199l1.205,9.908c1.857,15.261-9.01,29.138-24.271,30.995l-89.85,10.931
			c-6.975,0.849-13.317-4.118-14.166-11.093l-4.856-39.916c-0.849-6.975,4.118-13.317,11.093-14.166l89.85-10.931
			C1043.329,1009.072,1057.205,1019.938,1059.062,1035.199z"/>
		<path style="fill:#088CFC;" d="M1043.544,1014.823c-15.889-7.59-34.924-0.862-42.514,15.028c-0.028,0.059-0.037,0.122-0.066,0.181
			l-38.284,91.61c-6.411,13.42-0.729,29.495,12.691,35.906c13.42,6.41,29.495,0.729,35.906-12.691l47.295-87.518
			C1066.162,1041.448,1059.435,1022.414,1043.544,1014.823z"/>
		<path style="fill:#088CFC;" d="M1002.539,1026.943c9.21-15.009,28.843-19.71,43.853-10.5c0.056,0.034,0.097,0.082,0.153,0.116
			l81.936,56.076c12.676,7.778,16.647,24.359,8.869,37.035c-7.778,12.676-24.359,16.647-37.035,8.868l-87.274-47.742
			C998.03,1061.586,993.329,1041.953,1002.539,1026.943z"/>
		<g>
			<path style="fill:#F9ECB8;" d="M1016.724,1035.858c-3.624,6.743-1.881,14.919,3.772,19.63c0.821,0.683,1.705,1.291,2.678,1.814
				c0.973,0.523,1.984,0.934,2.99,1.233c7.057,2.099,14.83-0.94,18.454-7.683c3.615-6.726,1.871-14.902-3.773-19.63
				c-0.804-0.674-1.705-1.291-2.678-1.813c-0.973-0.523-1.967-0.925-2.99-1.233
				C1028.13,1026.058,1020.339,1029.132,1016.724,1035.858z"/>
			<path style="fill:#F9E181;" d="M1035.177,1028.174l-14.681,27.314c0.821,0.683,1.705,1.291,2.678,1.814
				c0.973,0.523,1.984,0.934,2.99,1.233l14.681-27.314c-0.804-0.674-1.705-1.291-2.678-1.813
				C1037.194,1028.884,1036.2,1028.482,1035.177,1028.174z"/>
		</g>
		<path style="fill:#2EC6FC;" d="M1141.528,1095.632c0.771-14.686-10.508-27.216-25.194-27.988
			c-14.687-0.772-27.217,10.508-27.989,25.194c-0.136,2.594,0.223,5.077,0.791,7.483l-0.115-0.006l15.739,90.975
			c-0.147,2.796,2.002,5.183,4.798,5.33c2.796,0.147,5.182-2.001,5.329-4.797l25.191-88.825l-0.121-0.006
			C1140.775,1100.657,1141.391,1098.226,1141.528,1095.632z"/>
		<g>
			<path style="fill:#F9ECB8;" d="M1106.079,1088.394c-2.682,4.511-1.73,10.164,2.003,13.558c0.542,0.492,1.13,0.934,1.781,1.321
				c0.651,0.387,1.331,0.699,2.011,0.933c4.772,1.646,10.185-0.205,12.868-4.717c2.675-4.5,1.723-10.152-2.003-13.558
				c-0.531-0.486-1.13-0.934-1.78-1.321c-0.651-0.387-1.32-0.692-2.012-0.933
				C1114.182,1082.019,1108.754,1083.894,1106.079,1088.394z"/>
			<path style="fill:#F9E181;" d="M1118.946,1083.677l-10.865,18.274c0.542,0.492,1.13,0.934,1.781,1.321
				c0.651,0.387,1.331,0.699,2.011,0.933l10.864-18.274c-0.531-0.486-1.13-0.934-1.78-1.321
				C1120.307,1084.223,1119.638,1083.918,1118.946,1083.677z"/>
		</g>
		<g>
			
				<rect x="830.266" y="1054.311" transform="matrix(0.9498 -0.3127 0.3127 0.9498 -324.7601 457.7103)" style="fill:#BBDBF3;" width="868.434" height="373.898"/>
			<g>
				
					<rect x="869.741" y="1175.461" transform="matrix(0.9498 -0.3127 0.3127 0.9498 -366.5412 376.8862)" style="fill:#FFFFFF;" width="243.782" height="311.27"/>
				
					<ellipse transform="matrix(0.9498 -0.3127 0.3127 0.9498 -359.9086 373.4497)" style="fill:#BBDBF3;" cx="984.237" cy="1308.703" rx="50.735" ry="64.995"/>
				<path style="fill:#BBDBF3;" d="M1143.81,1444.846l-207.064,68.176c-21.349-69.772,6.163-140.461,62.411-158.98
					C1055.464,1335.503,1119.532,1376.039,1143.81,1444.846z"/>
			</g>
			
				<rect x="1087.524" y="1104.443" transform="matrix(0.9498 -0.3127 0.3127 0.9498 -288.5455 425.9753)" style="fill:#FFFFFF;" width="192.271" height="16.109"/>
			
				<rect x="1570.11" y="970.388" transform="matrix(0.9498 -0.3127 0.3127 0.9498 -226.199 546.5809)" style="fill:#FFFFFF;" width="41.402" height="16.109"/>
			
				<rect x="1518.935" y="987.237" transform="matrix(0.9498 -0.3127 0.3127 0.9498 -234.0352 531.4219)" style="fill:#FFFFFF;" width="41.402" height="16.109"/>
			
				<rect x="1467.76" y="1004.087" transform="matrix(0.9498 -0.3127 0.3127 0.9498 -241.8715 516.263)" style="fill:#FFFFFF;" width="41.402" height="16.109"/>
			
				<rect x="1105.606" y="1150.225" transform="matrix(0.9498 -0.3127 0.3127 0.9498 -299.0988 451.7402)" style="fill:#FFFFFF;" width="306.195" height="16.109"/>
			
				<rect x="1096.704" y="1128.202" transform="matrix(0.9498 -0.3127 0.3127 0.9498 -294.2259 438.0765)" style="fill:#FFFFFF;" width="243.681" height="16.109"/>
			<g>
				
					<rect x="1125.762" y="1233.561" transform="matrix(0.9498 -0.3127 0.3127 0.9498 -330.3781 421.1888)" style="fill:#FFFFFF;" width="44.125" height="13.909"/>
				
					<rect x="1170.293" y="1197.469" transform="matrix(0.9498 -0.3127 0.3127 0.9498 -313.5932 453.6607)" style="fill:#FFFFFF;" width="174.298" height="13.909"/>
				
					<rect x="1343.01" y="1144.444" transform="matrix(0.9498 -0.3127 0.3127 0.9498 -288.9323 501.3672)" style="fill:#FFFFFF;" width="150.962" height="13.909"/>
				
					<rect x="1492.141" y="1094.383" transform="matrix(0.9498 -0.3127 0.3127 0.9498 -265.6496 546.4045)" style="fill:#FFFFFF;" width="156.787" height="13.909"/>
				
					<rect x="1132.878" y="1251.37" transform="matrix(0.9498 -0.3127 0.3127 0.9498 -334.402 431.7196)" style="fill:#FFFFFF;" width="91.527" height="13.909"/>
				
					<rect x="1224.755" y="1209.263" transform="matrix(0.9498 -0.3127 0.3127 0.9498 -314.8194 469.6025)" style="fill:#FFFFFF;" width="163.544" height="13.909"/>
				
					<rect x="1384.017" y="1138.278" transform="matrix(0.9498 -0.3127 0.3127 0.9498 -281.8055 533.4658)" style="fill:#FFFFFF;" width="276.211" height="13.909"/>
				
					<rect x="1139.956" y="1268.951" transform="matrix(0.9498 -0.3127 0.3127 0.9498 -338.3203 442.4553)" style="fill:#FFFFFF;" width="140.383" height="13.909"/>
				
					<rect x="1277.376" y="1214.101" transform="matrix(0.9498 -0.3127 0.3127 0.9498 -312.8104 491.8036)" style="fill:#FFFFFF;" width="198.729" height="13.909"/>
				
					<rect x="1473.556" y="1150.47" transform="matrix(0.9498 -0.3127 0.3127 0.9498 -283.217 549.0505)" style="fill:#FFFFFF;" width="192.886" height="13.909"/>
				
					<rect x="1147.468" y="1289.23" transform="matrix(0.9498 -0.3127 0.3127 0.9498 -343.4925 450.7631)" style="fill:#FFFFFF;" width="171.989" height="13.909"/>
				
					<rect x="1318.821" y="1232.812" transform="matrix(0.9498 -0.3127 0.3127 0.9498 -317.2535 501.5215)" style="fill:#FFFFFF;" width="171.989" height="13.909"/>
				
					<rect x="1489.215" y="1174.561" transform="matrix(0.9498 -0.3127 0.3127 0.9498 -290.1626 553.9298)" style="fill:#FFFFFF;" width="185.042" height="13.909"/>
				
					<rect x="1156.284" y="1317.645" transform="matrix(0.9498 -0.3127 0.3127 0.9498 -352.4489 451.7533)" style="fill:#FFFFFF;" width="151.57" height="13.909"/>
				
					<rect x="1304.586" y="1257.891" transform="matrix(0.9498 -0.3127 0.3127 0.9498 -324.6589 505.5126)" style="fill:#FFFFFF;" width="217.933" height="13.909"/>
				
					<rect x="1519.322" y="1196.285" transform="matrix(0.9498 -0.3127 0.3127 0.9498 -296.007 560.9375)" style="fill:#FFFFFF;" width="162.677" height="13.909"/>
				
					<rect x="1166.417" y="1354.269" transform="matrix(0.9498 -0.3127 0.3127 0.9498 -365.2241 445.3572)" style="fill:#FFFFFF;" width="78.643" height="13.909"/>
				
					<rect x="1247.42" y="1323.147" transform="matrix(0.9498 -0.3127 0.3127 0.9498 -350.7499 473.3571)" style="fill:#FFFFFF;" width="105.685" height="13.909"/>
				
					<rect x="1353.915" y="1277.819" transform="matrix(0.9498 -0.3127 0.3127 0.9498 -329.6679 514.1366)" style="fill:#FFFFFF;" width="168.037" height="13.909"/>
				
					<rect x="1521.142" y="1222.759" transform="matrix(0.9498 -0.3127 0.3127 0.9498 -304.0611 563.6739)" style="fill:#FFFFFF;" width="168.037" height="13.909"/>
				
					<rect x="1172.261" y="1364.153" transform="matrix(0.9498 -0.3127 0.3127 0.9498 -365.5615 463.0172)" style="fill:#FFFFFF;" width="176.729" height="13.909"/>
				
					<rect x="1348.295" y="1312.116" transform="matrix(0.9498 -0.3127 0.3127 0.9498 -341.36 509.8334)" style="fill:#FFFFFF;" width="140.754" height="13.909"/>
				
					<rect x="1490.898" y="1269.126" transform="matrix(0.9498 -0.3127 0.3127 0.9498 -321.3659 548.5112)" style="fill:#FFFFFF;" width="116.689" height="13.909"/>
				
					<rect x="1609.431" y="1235.152" transform="matrix(0.9498 -0.3127 0.3127 0.9498 -305.5652 579.0762)" style="fill:#FFFFFF;" width="85.994" height="13.909"/>
				
					<rect x="1181.797" y="1397.052" transform="matrix(0.9498 -0.3127 0.3127 0.9498 -376.6034 459.9712)" style="fill:#FFFFFF;" width="127.625" height="13.909"/>
			</g>
		</g>
		<path style="fill:#2EC6FC;" d="M959.915,1139.466c-2.521-14.488,7.181-28.277,21.669-30.798
			c14.489-2.521,28.278,7.18,30.799,21.669c0.445,2.559,0.386,5.067,0.109,7.524l0.113-0.02l-4.755,92.204
			c0.48,2.759-1.368,5.385-4.127,5.865c-2.759,0.48-5.384-1.368-5.864-4.126l-35.624-85.178l0.119-0.021
			C961.263,1144.365,960.36,1142.025,959.915,1139.466z"/>
		<g>
			<path style="fill:#F9ECB8;" d="M979.3,1126.174c-4.128,3.242-5.276,8.857-3.017,13.368c0.328,0.655,0.717,1.279,1.185,1.874
				c0.468,0.596,0.99,1.131,1.54,1.595c3.858,3.255,9.575,3.479,13.703,0.237c4.117-3.234,5.266-8.849,3.017-13.369
				c-0.32-0.644-0.717-1.279-1.185-1.874c-0.468-0.596-0.982-1.121-1.54-1.595C989.155,1123.147,983.417,1122.941,979.3,1126.174z"
				/>
			<path style="fill:#F9E181;" d="M993.002,1126.411l-16.72,13.131c0.328,0.655,0.717,1.279,1.185,1.874
				c0.468,0.596,0.99,1.131,1.54,1.595l16.72-13.131c-0.32-0.644-0.717-1.279-1.185-1.874
				C994.075,1127.411,993.561,1126.885,993.002,1126.411z"/>
		</g>
	</g>
	<g>
		<path style="fill:#088CFC;" d="M1467.84,1582.702c-0.722-14.433-13.008-25.547-27.441-24.825c-0.054,0.003-0.102,0.02-0.156,0.023
			l-81.073,8.119c-12.189,0.61-21.576,10.986-20.966,23.175c0.61,12.189,10.986,21.576,23.175,20.966l81.636-0.016
			C1457.448,1609.422,1468.562,1597.136,1467.84,1582.702z"/>
		<path style="fill:#2EC6FC;" d="M1340.721,1577.442c5.226-10.878,18.281-15.46,29.159-10.234
			c10.879,5.226,15.46,18.281,10.234,29.159c-0.923,1.922-2.159,3.568-3.516,5.077l0.085,0.041l-47.149,59.309
			c-0.995,2.071-3.482,2.944-5.553,1.949c-2.071-0.995-2.944-3.481-1.948-5.552l16.832-73.874l0.089,0.043
			C1339.284,1581.356,1339.798,1579.363,1340.721,1577.442z"/>
		<g>
			<path style="fill:#F9ECB8;" d="M1369.095,1586.186c0.155,4.304-2.756,7.999-6.78,8.973c-0.584,0.141-1.181,0.228-1.802,0.25
				c-0.621,0.022-1.234-0.021-1.816-0.12c-4.084-0.693-7.253-4.158-7.408-8.462c-0.155-4.293,2.756-7.988,6.78-8.973
				c0.573-0.141,1.181-0.228,1.802-0.25c0.621-0.022,1.223,0.021,1.816,0.12C1365.771,1578.406,1368.94,1581.892,1369.095,1586.186z
				"/>
			<path style="fill:#F9E181;" d="M1361.687,1577.724l0.628,17.435c-0.584,0.141-1.181,0.228-1.802,0.25
				c-0.621,0.022-1.234-0.021-1.816-0.12l-0.628-17.435c0.573-0.141,1.181-0.228,1.802-0.25
				C1360.493,1577.581,1361.094,1577.625,1361.687,1577.724z"/>
		</g>
		<g>
			
				<rect x="1136.249" y="1521.061" transform="matrix(-0.5558 0.8313 -0.8313 -0.5558 3408.4607 1591.8188)" style="fill:#BBDBF3;" width="285.368" height="371.02"/>
			<polygon style="fill:#FFFFFF;" points="1349.85,1748.849 1278.635,1604.35 1189.103,1738.273 			"/>
			
				<rect x="1018.439" y="1810.967" transform="matrix(0.8313 0.5558 -0.5558 0.8313 1213.87 -362.3642)" style="fill:#E5F0F8;" width="371.02" height="15.533"/>
			
				<rect x="1034.37" y="1758.475" transform="matrix(0.8313 0.5558 -0.5558 0.8313 1171.453 -327.5793)" style="fill:#F74242;" width="182.122" height="15.533"/>
			<path style="fill:#FFFFFF;" d="M1207.818,1830.662l-19.133-12.791c-3.551-2.374-4.514-7.222-2.14-10.773l0,0
				c2.374-3.551,7.222-4.514,10.773-2.14l19.133,12.791c3.551,2.374,4.514,7.222,2.14,10.773l0,0
				C1216.217,1832.073,1211.369,1833.036,1207.818,1830.662z"/>
		</g>
		<path style="fill:#088CFC;" d="M2329.04,2012.866h-329.981v-44.743c0-6.344,5.143-11.488,11.488-11.488h307.005
			c6.344,0,11.488,5.143,11.488,11.488V2012.866z"/>
		<path style="fill:#088CFC;" d="M2134.103,1635.06L2134.103,1635.06c6.906-13.219,1.622-29.532-11.722-36.192l-333.427-166.416
			c-9.642-4.812-21.361-1.016-26.351,8.535l0,0c-4.99,9.551-1.411,21.339,8.046,26.504l327.051,178.622
			C2110.789,1653.261,2127.197,1648.279,2134.103,1635.06z"/>
		<rect x="2026.182" y="1774.222" style="fill:#2EC6FC;" width="275.714" height="182.406"/>
		<polygon style="fill:#0775EF;" points="2301.902,1774.224 2026.197,1774.224 2052.015,1734.887 2276.083,1734.887 		"/>
		<path style="fill:#0775EF;" d="M2125.649,1592.319c8.225,4.107,14.317,11.187,17.149,19.932c2.832,8.745,2.048,18.05-2.209,26.199
			c-1.143,2.19-2.525,4.253-4.101,6.13c-10.354,12.34-28.143,15.684-42.297,7.955l-109.509-59.809
			c-2.087-1.14-2.859-3.754-1.725-5.844l26.087-48.102c1.109-2.045,3.639-2.843,5.72-1.804L2125.649,1592.319z"/>
		<rect x="2133.053" y="1686.5" style="fill:#0775EF;" width="61.993" height="36.378"/>
		<rect x="2094.764" y="1714" style="fill:#088CFC;" width="138.571" height="20.887"/>
		<polygon style="fill:#088CFC;" points="2099.59,1774.222 2026.189,1901.351 2026.189,1821.934 2053.737,1774.222 		"/>
		<polygon style="fill:#088CFC;" points="2192.923,1774.222 2087.61,1956.628 2041.783,1956.628 2147.096,1774.222 		"/>
		<polygon style="fill:#088CFC;" points="2286.308,1774.222 2180.97,1956.628 2135.142,1956.628 2240.455,1774.222 		"/>
		<polygon style="fill:#088CFC;" points="2301.896,1830.738 2301.896,1910.13 2275.045,1956.628 2229.218,1956.628 		"/>
		<path style="fill:#2EC6FC;" d="M2221.333,1665.279c-7.773,38.409-103.052,63.141-144.841-7.213
			c-38.267-64.425,25.032-86.41,43.094-58.293c22.404,34.877,30.206,27.978,67.492,26.297
			C2209.465,1625.06,2226.071,1641.87,2221.333,1665.279z"/>
		<path style="fill:#322A28;" d="M2084.192,1630.879c0.155,1.523,0.439,3.176,0.852,4.931c0,0.052,0.026,0.103,0.026,0.155
			c0.387,1.678,0.878,3.279,1.446,4.802c0.646,1.756,1.394,3.382,2.22,4.931c0.981,1.781,2.065,3.434,3.279,4.957
			c1.446,1.859,3.046,3.486,4.751,4.932c2.401,2.039,5.009,3.666,7.694,4.957c10.353,4.88,22.1,4.389,28.839,0
			c1.833-1.188,3.305-2.685,4.26-4.415c0.103-0.181,0.206-0.362,0.284-0.542c0.852-1.653,1.369-3.331,1.524-4.932
			c0.206-1.756,0.026-3.408-0.465-4.957c-0.594-1.859-1.652-3.537-3.098-4.931c-1.652-1.626-3.847-2.866-6.429-3.563
			c-2.065-0.568-3.924-1.007-5.654-1.394c-5.809-1.291-9.811-2.04-12.858-4.931c-1.291-1.214-2.427-2.788-3.434-4.957
			c-0.646-1.394-1.239-3.021-1.807-4.931c-0.155-0.516-0.31-1.058-0.464-1.627c-0.336-1.239-0.852-2.349-1.55-3.305
			c-3.666-5.241-11.67-5.706-16.24,0c-1.058,1.291-1.91,2.943-2.504,4.931c-0.439,1.446-0.749,3.098-0.826,4.931
			C2083.934,1627.445,2083.986,1629.072,2084.192,1630.879z"/>
		<path style="fill:#2EC6FC;" d="M2096.766,1655.587c2.401,2.039,5.009,3.666,7.694,4.957h28.839
			c1.833-1.188,3.305-2.685,4.26-4.415c0.103-0.181,0.206-0.362,0.284-0.542H2096.766z"/>
		<path style="fill:#2EC6FC;" d="M2088.737,1645.699c0.981,1.781,2.065,3.434,3.279,4.957h47.351
			c0.206-1.756,0.026-3.408-0.465-4.957H2088.737z"/>
		<path style="fill:#2EC6FC;" d="M2085.045,1635.81c0,0.052,0.026,0.103,0.026,0.155c0.387,1.678,0.878,3.279,1.446,4.802h49.287
			c-1.652-1.626-3.847-2.866-6.429-3.563c-2.065-0.568-3.924-1.007-5.654-1.394H2085.045z"/>
		<path style="fill:#2EC6FC;" d="M2084.192,1630.879h26.67c-1.291-1.214-2.427-2.788-3.434-4.957h-23.392
			C2083.934,1627.445,2083.986,1629.072,2084.192,1630.879z"/>
		<path style="fill:#2EC6FC;" d="M2084.864,1620.99h20.758c-0.155-0.516-0.31-1.058-0.464-1.627
			c-0.336-1.239-0.852-2.349-1.55-3.305h-16.24C2086.31,1617.35,2085.458,1619.002,2084.864,1620.99z"/>
		
			<ellipse transform="matrix(0.9966 -0.0822 0.0822 0.9966 -113.1519 151.2545)" style="fill:#0775EF;" cx="1781.425" cy="1450.616" rx="33.767" ry="33.767"/>
		<path style="fill:none;stroke:#000000;stroke-width:0.3187;stroke-miterlimit:10;" d="M1776.166,1456.882
			c3.461,2.904,8.621,2.453,11.525-1.008c2.904-3.461,2.453-8.621-1.008-11.525c-3.461-2.904-8.621-2.453-11.525,1.008
			C1772.254,1448.818,1772.705,1453.978,1776.166,1456.882z"/>
		<path style="fill:#2EC6FC;" d="M1797.333,1446.466L1797.333,1446.466c3.193,8.33-1.009,17.758-9.339,20.952l-293.948,112.687
			c-8.33,3.193-17.758-1.009-20.952-9.339l0,0c-3.193-8.33,1.009-17.758,9.339-20.952l293.948-112.687
			C1784.711,1433.933,1794.139,1438.136,1797.333,1446.466z"/>
		<path style="fill:#0775EF;" d="M1418.647,1589.456l3.067,7.595c4.724,11.698,18.037,17.352,29.735,12.629l68.875-27.812
			c5.347-2.159,7.931-8.243,5.772-13.59l-12.355-30.597c-2.159-5.347-8.243-7.931-13.59-5.772l-68.875,27.812
			C1419.577,1564.445,1413.923,1577.757,1418.647,1589.456z"/>
		<path style="fill:#088CFC;" d="M1443.087,1557.832c14.429,0.79,25.485,13.128,24.695,27.558c-0.003,0.054-0.021,0.102-0.024,0.156
			l-8.501,81.034c-0.667,12.186-11.087,21.524-23.274,20.857c-12.186-0.667-21.524-11.088-20.857-23.274l0.401-81.635
			C1416.318,1568.098,1428.656,1557.042,1443.087,1557.832z"/>
		<g>
			<path style="fill:#F9ECB8;" d="M1454.117,1583.536c-0.045,6.282-4.519,11.483-10.444,12.649c-0.86,0.169-1.736,0.258-2.642,0.251
				c-0.906-0.006-1.796-0.108-2.638-0.289c-5.907-1.267-10.307-6.516-10.262-12.798c0.045-6.266,4.52-11.467,10.445-12.649
				c0.844-0.169,1.736-0.258,2.642-0.251c0.907,0.006,1.781,0.108,2.638,0.289C1449.762,1571.99,1454.162,1577.27,1454.117,1583.536
				z"/>
			<path style="fill:#F9E181;" d="M1443.855,1570.739l-0.182,25.447c-0.86,0.169-1.736,0.258-2.642,0.251
				c-0.906-0.006-1.796-0.108-2.638-0.289l0.182-25.447c0.844-0.169,1.736-0.258,2.642-0.251
				C1442.123,1570.456,1442.997,1570.558,1443.855,1570.739z"/>
		</g>
		<path style="fill:#2EC6FC;" d="M1454.231,1680.503c7.519-9.44,5.962-23.187-3.477-30.706c-9.44-7.52-23.188-5.963-30.707,3.477
			c-1.328,1.667-2.273,3.496-3.041,5.375l-0.074-0.059l-32.876,68.262c-1.432,1.797-1.135,4.416,0.663,5.848
			c1.797,1.432,4.415,1.135,5.847-0.662l59.185-47.306l-0.078-0.062C1451.332,1683.5,1452.903,1682.17,1454.231,1680.503z"/>
		<g>
			<path style="fill:#F9ECB8;" d="M1445.506,1663.301c1.696,3.959,0.312,8.455-3.091,10.814c-0.494,0.342-1.02,0.638-1.591,0.883
				c-0.571,0.245-1.158,0.425-1.737,0.542c-4.059,0.825-8.264-1.265-9.96-5.224c-1.692-3.949-0.307-8.445,3.091-10.814
				c0.484-0.338,1.02-0.639,1.591-0.883c0.571-0.245,1.149-0.421,1.737-0.542
				C1439.602,1657.242,1443.815,1659.352,1445.506,1663.301z"/>
			<path style="fill:#F9E181;" d="M1435.547,1658.077l6.869,16.038c-0.494,0.342-1.02,0.638-1.591,0.883
				c-0.571,0.245-1.158,0.425-1.737,0.542l-6.869-16.038c0.484-0.338,1.02-0.639,1.591-0.883
				C1434.381,1658.375,1434.958,1658.198,1435.547,1658.077z"/>
		</g>
	</g>
	<g>
		<path style="fill:#F74242;" d="M642.57,1598.947c0,28.968,42.897,80.37,40.924,137.565s-12.327,96.394,15.778,97.873
			c28.105,1.479,153.096,0,153.096,0h55.47c0,0,10.601-55.593-25.639-59.661c-36.24-4.068-75.716,1.195-82.465-21.078
			c-7.396-24.407-2.589-68.782-1.479-96.148c1.109-27.365,11.464-83.205-24.037-104.653c-35.501-21.448-77.139-15.046-103.174-2.958
			C650.336,1559.502,642.57,1573.554,642.57,1598.947z"/>
		<path style="fill:#BBDBF3;" d="M842.759,2013.175L842.759,2013.175c-2.195,0-3.975-1.78-3.975-3.975v-4.438
			c0-2.196,1.78-3.975,3.975-3.975l0,0c2.196,0,3.975,1.78,3.975,3.975v4.438C846.734,2011.395,844.954,2013.175,842.759,2013.175z"
			/>
		<polygon style="fill:#586773;" points="799.857,1983.044 842.759,2000.787 799.857,1993.399 		"/>
		<rect x="962.655" y="1727.59" style="fill:#586773;" width="10.895" height="286.913"/>
		<polygon style="fill:#A06753;" points="971.713,1986.026 1007.003,1986.43 999.816,1933.402 958.578,1947.65 		"/>
		<polygon style="fill:#322A28;" points="970.51,2013.175 987.167,2013.096 988.184,2002.339 997.307,2013.048 1036.604,2012.862 
			1007.003,1986.43 971.713,1986.026 		"/>
		
			<line style="fill:none;stroke:#D1DDFF;stroke-width:2.2081;stroke-miterlimit:10;" x1="997.13" y1="1993.266" x2="1012.841" y2="1993.142"/>
		
			<line style="fill:none;stroke:#D1DDFF;stroke-width:2.2081;stroke-miterlimit:10;" x1="1000.955" y1="1998.663" x2="1016.667" y2="1998.539"/>
		<path style="fill:#B86B76;" d="M926.19,1739.086c-18.658,6.697-28.355,27.252-21.658,45.91l46.948,168.959l57.852-8.997
			l-35.182-174.177l-0.014,0.003c-0.196-3.348-0.845-6.723-2.036-10.04C965.404,1742.085,944.849,1732.389,926.19,1739.086z"/>
		<path style="fill:#F9E181;" d="M891.788,1717.889L891.788,1717.889c-10.407,6.388-24.148,3.1-30.536-7.307l-48.017-78.226
			c-6.388-10.407-3.1-24.148,7.307-30.536l0,0c10.407-6.388,24.148-3.1,30.536,7.307l48.017,78.226
			C905.483,1697.759,902.195,1711.501,891.788,1717.889z"/>
		<path style="fill:#088CFF;" d="M744.88,1745.493c0,0-6.47,7.352-9.044,13.349c-2.574,5.996,28.153,2.689,28.153,2.689
			l-3.349-28.805L744.88,1745.493z"/>
		<path style="fill:#B86B76;" d="M974.697,1774.406L974.697,1774.406c0,20.592-16.848,37.44-37.44,37.44l-143.832,0
			c-20.592,0-37.44-16.848-37.44-37.44l0,0c0-20.592,16.848-37.44,37.44-37.44l143.832,0
			C957.849,1736.966,974.697,1753.814,974.697,1774.406z"/>
		<path style="fill:#322A28;" d="M826.516,1539.561c0,0,9.502-19.342-2.955-18.783S826.516,1539.561,826.516,1539.561z"/>
		<path style="fill:#E7888B;" d="M949.333,1792.821L949.333,1792.821c-1.949,20.5-20.315,35.678-40.815,33.729l-143.187-13.611
			c-20.5-1.949-35.678-20.316-33.729-40.815l0,0c1.949-20.5,20.315-35.678,40.815-33.729l143.187,13.611
			C936.104,1753.955,951.282,1772.322,949.333,1792.821z"/>
		<path style="fill:#F9E181;" d="M776.659,1589.467l-38.854,18.299c0,0,8.639,99.321,9.532,110.262
			c0.893,10.941-2.456,27.465-2.456,27.465h93.113c0,0-1.116-53.59,5.136-68.551c4.236-10.135,7.145-16.3,4.689-27.912
			c-2.456-11.611-10.718-29.028-7.815-49.124l-23.892-9.602L776.659,1589.467z"/>
		<path style="fill:#A06753;" d="M816.12,1545.135v45.178c0,0,0,0.552-0.11,1.435c-0.464,3.688-2.849,13.16-15.126,13.028
			c-11.217-0.133-19.056-8.369-22.39-12.697c-1.215-1.546-1.833-2.606-1.833-2.606l5.653-44.339H816.12z"/>
		<polygon style="fill:#A06753;" points="840.41,1986.026 875.701,1986.43 883.192,1962.503 844.64,1959.569 		"/>
		<polygon style="fill:#824C3A;" points="816.11,1590.305 796.024,1564.66 816.11,1560.791 		"/>
		<path style="fill:#A06753;" d="M817.041,1572.53c-7.998,2.606-19.086-0.569-26.932-8.808c-7.846-8.239-25.473-39.087-1.945-53.455
			c23.554-14.361,37.464,9.416,38.073,13.097c0,0,0.233,12.975,0.375,22.119c0.053,2.326,0.088,4.393,0.113,5.95
			c-0.008,0.252,0.017,0.484,0.016,0.709C826.853,1559.306,825.032,1569.95,817.041,1572.53z"/>
		<path style="fill:#F9E181;" d="M682.466,1719.705L682.466,1719.705c-9.967-7.054-12.351-20.981-5.296-30.948l53.025-74.921
			c7.054-9.967,20.981-12.351,30.948-5.296h0c9.967,7.054,12.351,20.981,5.296,30.948l-53.025,74.921
			C706.36,1724.376,692.433,1726.76,682.466,1719.705z"/>
		<polygon style="fill:#322A28;" points="839.208,2013.175 855.864,2013.096 856.882,2002.339 866.005,2013.048 905.302,2012.862 
			875.701,1986.43 840.41,1986.026 		"/>
		<path style="fill:#322A28;" d="M828.006,1519.241c0.344,5.058-2.514,12.152-17.74,11.594c-15.226-0.559-17.88,6.844-16.343,12.99
			c0,0-3.213-3.438-2.375-7.725c0,0-5.448,6.252-3.213,12.646c0,0-3.893-6.136-6.276-1.617c-2.384,4.519,0.786,8.092-2.335,18.318
			c0,0,1.533-10.134-3.798-15.529c-5.33-5.395-10.848-56.798,28.333-44.217C804.26,1505.702,826.585,1498.358,828.006,1519.241z"/>
		<path style="fill:#E7888B;" d="M920.559,1754.237c-19.523-3.443-38.14,9.593-41.582,29.116l-44.426,180.238l55.413,10.698
			l56.511-168.739l-0.013-0.004c1.491-3.004,2.602-6.257,3.214-9.727C953.117,1776.296,940.082,1757.679,920.559,1754.237z"/>
		
			<line style="fill:none;stroke:#D1DDFF;stroke-width:2.2081;stroke-miterlimit:10;" x1="865.828" y1="1993.266" x2="881.539" y2="1993.142"/>
		
			<line style="fill:none;stroke:#D1DDFF;stroke-width:2.2081;stroke-miterlimit:10;" x1="869.653" y1="1998.663" x2="885.364" y2="1998.539"/>
		<path style="fill:#A06753;" d="M786.325,1547.936c1.389,4.222,1.354,6.935-1.961,8.026c-3.315,1.09-7.906-0.697-9.295-4.919
			c-1.389-4.222,0.172-8.529,3.487-9.62C781.872,1540.333,784.936,1543.714,786.325,1547.936z"/>
		<path style="fill:none;stroke:#724638;stroke-width:0.552;stroke-linecap:round;stroke-linejoin:round;stroke-miterlimit:10;" d="
			M777.923,1545.674c0,0,5.315-0.253,5.778,4.244c0,0-1.742-1.598-4.399-1.125"/>
		<path style="fill:#322A28;" d="M805.969,1541.835c-0.01,1.717,0.882,3.115,1.993,3.121s2.02-1.38,2.03-3.097
			c0.01-1.717-0.882-3.115-1.993-3.121C806.889,1538.731,805.98,1540.118,805.969,1541.835z"/>
		<path style="fill:#322A28;" d="M820.649,1540.59c-0.01,1.717,0.882,3.115,1.993,3.121s2.02-1.38,2.03-3.097
			c0.01-1.717-0.882-3.115-1.993-3.122C821.568,1537.486,820.659,1538.873,820.649,1540.59z"/>
		<path style="fill:#FFFFFF;" d="M811.4,1561.776c2.026,0.703,4.238-0.37,4.941-2.396l-7.337-2.545
			C808.301,1558.861,809.374,1561.073,811.4,1561.776z"/>
		<path style="fill:none;stroke:#2C3447;stroke-width:0.8196;stroke-miterlimit:10;" d="M802.078,1538.361
			c0,0,3.473-4.259,7.482-2.687"/>
		<path style="fill:none;stroke:#2C3447;stroke-width:0.8196;stroke-miterlimit:10;" d="M820.983,1534.976
			c0,0,2.507-0.452,5.157,2.276"/>
		<path style="fill:none;stroke:#2C3447;stroke-width:0.8196;stroke-miterlimit:10;" d="M815.46,1540.805
			c0,0,0.146,8.51,5.133,9.581c0,0-1.597,1.436-3.591,2.019"/>
		<path style="fill:#A14C53;" d="M808.686,1551.201c-0.418,1.635-3.214,2.332-6.245,1.556c-3.031-0.775-5.148-2.729-4.73-4.364
			c0.418-1.635,3.214-2.332,6.245-1.556C806.986,1547.612,809.104,1549.566,808.686,1551.201z"/>
		<path style="fill:#A14C53;" d="M826.724,1551.433c-1.822,0.07-3.284-0.502-3.649-1.61c-0.476-1.447,1.058-3.254,3.536-4.34
			C826.665,1547.809,826.7,1549.876,826.724,1551.433z"/>
		<path style="fill:#A06753;" d="M859.233,1704.861c-5.328-12.275-0.823-26.167,10.012-30.87l98.79-28.087
			c3.088-1.66,6.553-3.693,9.217-5.726c6.194-4.726,24.533-15.581,26.076-12.929c1.544,2.653-9.513,12.637-7.952,13.219
			c1.561,0.583,11.383-4.848,15.386-7.496c4.003-2.648,11.671-9.705,14.308-8.744c2.636,0.962,2.268,5.078,2.268,5.078
			s2.596-3.052,4.188-1.064c1.592,1.988-1.301,7.725-1.301,7.725s1.271-1.846,2.482,0.783c1.211,2.629-6.022,9.685-6.022,9.685
			s1.863-0.799,2.51,1.32s-9.88,10.338-19.045,13.644c-8.181,2.951-28.399,7.804-32.648,8.812l-88.883,48.416
			C877.786,1723.331,864.562,1717.136,859.233,1704.861z"/>
		
			<line style="fill:none;stroke:#2C3447;stroke-width:1.135;stroke-miterlimit:10;" x1="745.525" y1="1684.412" x2="758.704" y2="1656.827"/>
		<path style="fill:none;stroke:#FFFFFF;stroke-width:0.9348;stroke-miterlimit:10;" d="M785.327,1557.369
			c-0.013,1.805-1.487,3.257-3.292,3.244c-1.805-0.013-3.257-1.487-3.244-3.292c0.013-1.805,1.487-3.257,3.292-3.244
			C783.888,1554.09,785.341,1555.564,785.327,1557.369z"/>
		<path style="fill:#A06753;" d="M672.409,1698.723c-0.538,13.371,8.679,24.699,20.481,25.174l102.267-9.471
			c3.479,0.433,22.493-1.433,27.46-4.802c2.953-2.002,7.5-2.471,11.758-0.256c4.822,2.509,8.994,4.236,10.566,2.716
			c2.018-1.95-9.898-7.129-9.586-8.067c0.314-0.943,6.549,2.368,9.563,3.907c3.366,1.719,7.174,1.96,7.81,0.772
			c1.591-2.973-5.325-7.142-5.325-7.142s9.535,5.243,10.636,2.567c0.638-1.55-3.763-4.905-7.375-6.823
			c-2.466-1.31-11.609-4.688-11.171-5.906c0.281-0.781,8.783,3.201,10.555,3.758c3.396,1.068,8.598,1.013,8.494-0.406
			c-0.162-2.21-19.259-11.681-30.678-9.271c-11.013,2.324-28.203,3.451-32.529,4.045l-100.49-14.246
			C683.044,1674.8,672.948,1685.352,672.409,1698.723z"/>
		<path style="fill:none;stroke:#2C3447;stroke-width:1.135;stroke-miterlimit:10;" d="M842.808,1677.801
			c0,0,6.998-14.72,5.861-22.366c-1.137-7.646-7.365-28.304-8.187-34.648"/>
		<path style="fill:#322A28;" d="M786.81,1489.962c2.834,10.262-0.934,20.256-8.417,22.323c-7.483,2.067-15.846-4.576-18.681-14.838
			c-2.834-10.262,0.934-20.256,8.417-22.323C775.612,1473.057,783.976,1479.701,786.81,1489.962z"/>
		<rect x="764.357" y="1837.097" style="fill:#586773;" width="11.833" height="156.301"/>
		<rect x="740.69" y="1983.044" style="fill:#586773;" width="59.168" height="10.354"/>
		<rect x="753.14" y="1834.847" style="fill:#586773;" width="34.268" height="10.108"/>
		<path style="fill:#586773;" d="M697.788,2013.175L697.788,2013.175c2.195,0,3.975-1.78,3.975-3.975v-4.438
			c0-2.196-1.78-3.975-3.975-3.975l0,0c-2.196,0-3.975,1.78-3.975,3.975v4.438C693.813,2011.395,695.593,2013.175,697.788,2013.175z
			"/>
		<polygon style="fill:#586773;" points="740.69,1983.044 697.788,2000.787 740.69,1993.399 		"/>
		<rect x="650.659" y="1727.59" style="fill:#BBDBF3;" width="10.895" height="286.913"/>
		<path style="fill:#F74242;" d="M681.398,1772.531c0,0,137.754-17.417,165.794,7.724c24.675,22.124,5.177,54.13,5.177,54.13
			l-136.085,0.461L681.398,1772.531z"/>
		<rect x="780.146" y="1727.59" style="fill:#BBDBF3;" width="10.895" height="286.913"/>
		<rect x="1092.141" y="1727.59" style="fill:#586773;" width="10.895" height="286.913"/>
		<g>
			<path style="fill:#93ACBF;" d="M907.564,1689.521h151.835c3.021,0,5.526-2.342,5.728-5.357l6.29-93.722
				c0.222-3.314-2.406-6.125-5.728-6.125H913.854c-3.021,0-5.526,2.342-5.728,5.357l-6.29,93.722
				C901.614,1686.71,904.242,1689.521,907.564,1689.521z"/>
			<polygon style="fill:#93ACBF;" points="902.947,1687.177 907.192,1691.267 914.557,1679.937 903.967,1679.037 			"/>
			<polygon style="fill:#93ACBF;" points="1069.258,1585.563 1073.01,1589.047 1065.13,1594.494 1059.939,1588.957 
				1065.822,1585.563 			"/>
			<path style="fill:#586773;" d="M910.972,1692.707h151.835c3.021,0,5.526-2.342,5.728-5.356l6.29-93.722
				c0.222-3.314-2.406-6.125-5.728-6.125H917.261c-3.021,0-5.526,2.342-5.728,5.356l-6.29,93.722
				C905.021,1689.896,907.65,1692.707,910.972,1692.707z"/>
			<polygon style="fill:#586773;" points="972.651,1670.101 977.193,1714.224 1013.716,1714.224 1006.656,1645.651 
				974.887,1645.651 			"/>
			<polygon style="fill:#93ACBF;" points="981.936,1714.232 1018.481,1714.232 1011.42,1645.642 974.876,1645.642 			"/>
			<path style="fill:#586773;" d="M949.544,1723.161h80.979v-4.879c0-2.236-1.813-4.049-4.049-4.049h-72.881
				c-2.236,0-4.049,1.813-4.049,4.049V1723.161z"/>
			<path style="fill:#93ACBF;" d="M963.872,1723.161h80.979v-4.879c0-2.236-1.813-4.049-4.049-4.049h-72.881
				c-2.236,0-4.049,1.813-4.049,4.049V1723.161z"/>
		</g>
		<rect x="733.859" y="1723.161" style="fill:#586773;" width="383.761" height="11.794"/>
		<rect x="635.685" y="1723.161" style="fill:#BBDBF3;" width="159.108" height="11.794"/>
		<path style="fill:#FFFFFF;" d="M932.47,1723.161H819.746v-3.637c0-1.562,1.266-2.829,2.829-2.829h107.067
			c1.562,0,2.829,1.266,2.829,2.829V1723.161z"/>
	</g>
	<path style="fill:#0775EF;" d="M2387.141,2055.978H376.779c-11.705,0-21.193-9.489-21.193-21.193v-0.725
		c0-11.705,9.489-21.193,21.193-21.193h2010.362c11.705,0,21.193,9.489,21.193,21.193v0.725
		C2408.334,2046.489,2398.845,2055.978,2387.141,2055.978z"/>
	<g>
		<g>
			<path style="fill:#FDAE97;" d="M1597.895,1593.515c0,0-7.433-5.756-6.591-8.314c0.841-2.558,2.211-0.987,2.211-0.987
				s-3.281-4.996-2.02-7.002c1.261-2.006,3.984,0.54,3.984,0.54s-0.776-3.766,1.559-4.934c2.335-1.168,10.169,4.544,14.15,6.567
				c3.981,2.023,13.633,6.002,15.014,5.299c1.382-0.703-9.895-8.761-8.749-11.376c1.146-2.615,19.245,5.476,25.47,9.189
				c2.677,1.597,6.096,3.109,9.125,4.317l-6.179,23.469c-4.033-0.482-23.234-2.827-31.108-4.688
				c-8.821-2.085-19.42-8.567-19.046-10.594C1596.088,1592.974,1597.895,1593.515,1597.895,1593.515z"/>
			<path style="fill:#F74242;" d="M1734.271,1642.273c10.738,2.335,21.688-5.707,24.333-17.871
				c2.646-12.165-3.975-24.029-14.712-26.364l-93.846-16.504l-7.819,30.849L1734.271,1642.273z"/>
			<rect x="1771.622" y="1732.888" style="fill:#E5F0F8;" width="83.184" height="123.006"/>
			<path style="fill:#F74242;" d="M1725.483,1639.485L1725.483,1639.485c11.242,6.377,25.658,2.397,32.035-8.845l42.396-74.736
				c6.377-11.242,2.397-25.658-8.845-32.035l0,0c-11.242-6.377-25.658-2.397-32.035,8.845l-42.396,74.736
				C1710.26,1618.692,1714.24,1633.107,1725.483,1639.485z"/>
			<path style="fill:#0775EF;" d="M1771.622,1665.775l-24.721,141.456c-1.262,3.555-1.984,7.365-1.984,11.352
				c0,18.771,15.217,33.987,33.987,33.987s33.987-15.217,33.987-33.987l39.787-152.809H1771.622z"/>
			<polygon style="fill:#088CFF;" points="1883.879,1664.464 1805.382,1652.031 1811.602,1764.916 1821.198,1788.213 
				1825.084,1821.673 1892.954,1820.045 			"/>
			<path style="fill:#0775EF;" d="M1745.293,1823.368c-0.222-1.567-0.375-3.156-0.375-4.784c0-18.771,15.217-33.988,33.987-33.988
				c18.771,0,33.988,15.217,33.988,33.988l-2.01,160.581l-57.3-0.033L1745.293,1823.368z"/>
			<path style="fill:#088CFF;" d="M1825.462,1816.889c2.936-18.54,20.346-31.189,38.886-28.252
				c18.54,2.936,27.49,12.279,28.606,31.409c2.59,44.412,6.287,158.414,6.287,158.414l-59.453-0.153l-14.703-156.634
				C1825.111,1820.09,1825.208,1818.497,1825.462,1816.889z"/>
			<polygon style="fill:#FFFFFF;" points="1807.566,1505.683 1771.622,1521.868 1771.622,1667.798 1884.073,1667.798 
				1893.006,1523.217 1844.332,1503.014 			"/>
			<path style="fill:#FDAE97;" d="M1807.575,1482.882v22.801c0,0,1.362,4.924,12.954,4.971c11.568,0.024,23.805-7.648,23.805-7.648
				l-3.585-49.857L1807.575,1482.882z"/>
			<polygon style="fill:#E89780;" points="1807.566,1502.556 1831.246,1477.972 1807.566,1477.661 			"/>
			<path style="fill:#FDAE97;" d="M1811.549,1431.302c0,0-4.394,13.273-7.512,22.69l-2.577,7.783
				c-2.036,6.149-3.331,15.841,2.891,20.242c6.199,4.394,16.66,4.659,25.667-0.34c9.014-5.022,34.474-32.646,18.004-51.417
				C1831.53,1411.482,1813.077,1428.283,1811.549,1431.302z"/>
			<path style="fill:#322A28;" d="M1846.273,1428.432c0,0-20.959-19.602-29.145-13.995c-8.186,5.607,0.451,11.37,0.451,11.37
				s-11.337-5.299-13.511,2.807c-2.174,8.106,30.943,7.019,30.943,7.019s-11.258,1.195-6.763,6.587s12.486,2.945,12.486,2.945
				s4.551,5.068-1.248,19.505c-5.799,14.437,3.529,19.97,3.529,19.97s4.733-22.047,11.019-26.585
				C1860.32,1453.516,1861.322,1429.273,1846.273,1428.432z"/>
			<g>
				<path style="fill:#FDAE97;" d="M1836.967,1467.628c-3.645,2.965-5.162,5.398-2.835,8.26c2.328,2.862,7.432,3.891,11.077,0.927
					c3.645-2.965,4.713-7.688,2.386-10.55S1840.612,1464.663,1836.967,1467.628z"/>
				<path style="fill:none;stroke:#E89780;stroke-width:0.5727;stroke-miterlimit:10;" d="M1844.767,1469.891
					c0,0-2.882-1.456-6.245,1.742c0,0,2.061,0.194,4.245,1.405"/>
			</g>
			<path style="fill:#322A28;" d="M1823.372,1454.501c-0.472,1.426-1.603,2.335-2.526,2.029c-0.923-0.306-1.288-1.709-0.816-3.136
				c0.472-1.426,1.603-2.335,2.526-2.03C1823.479,1451.671,1823.844,1453.075,1823.372,1454.501z"/>
			<path style="fill:none;stroke:#332B27;stroke-width:0.717;stroke-miterlimit:10;" d="M1817.779,1470.499
				c0,0-4.081,4.01-9.983,0.799"/>
			<path style="fill:none;stroke:#332B27;stroke-width:0.717;stroke-miterlimit:10;" d="M1816.792,1453.293l-6.163,8.066
				c-0.624,0.817-0.612,1.955,0.03,2.758l2.013,2.518"/>
			<path style="fill:none;stroke:#332B27;stroke-width:0.717;stroke-miterlimit:10;" d="M1828.264,1451.239
				c0,0-2.704-3.626-6.574-3.176"/>
			<path style="fill:#322A28;" d="M1806.12,1448.79c-0.472,1.426-0.107,2.83,0.816,3.136c0.923,0.306,2.053-0.603,2.526-2.029
				s0.107-2.83-0.816-3.136C1807.723,1446.455,1806.592,1447.363,1806.12,1448.79z"/>
			<path style="fill:none;stroke:#332B27;stroke-width:0.717;stroke-miterlimit:10;" d="M1806.877,1444.002
				c0,0,3.206-1.512,6.043,1.158"/>
			<path style="fill:#F74242;" d="M1911.551,1650.759L1911.551,1650.759c12.514-3.232,20.109-16.115,16.877-28.629l-21.485-83.195
				c-3.232-12.514-16.115-20.109-28.629-16.877h0c-12.514,3.232-20.109,16.115-16.877,28.629l21.485,83.195
				C1886.154,1646.396,1899.037,1653.991,1911.551,1650.759z"/>
			<path style="fill:#F74242;" d="M1849.168,1505.021c0,0-21.547,47.072-23.213,91.462c-1.666,44.39,0,125.006,0,125.006h67.051
				v-198.272L1849.168,1505.021z"/>
			<path style="fill:#E89780;" d="M1818.441,1463.194c0.005,1.456,2.355,2.628,5.25,2.618c2.894-0.01,5.237-1.198,5.231-2.654
				c-0.005-1.456-2.355-2.628-5.25-2.618C1820.778,1460.55,1818.436,1461.738,1818.441,1463.194z"/>
			<path style="fill:#F74242;" d="M1804.795,1506.931c0,0-9.76,86.131-9.342,112.544c0.418,26.413-2.09,95.37-2.09,95.37h-32.446
				c0,0-1.221-40.985,0-66.667c1.221-25.682,10.706-126.309,10.706-126.309L1804.795,1506.931z"/>
			<path style="fill:#E89780;" d="M1804.037,1453.992l-1.675,5.06c2.05,0.956,3.992,0.944,4.656-0.07
				C1807.771,1457.771,1806.444,1455.544,1804.037,1453.992z"/>
			<polygon style="fill:#FDAE97;" points="1806.397,1993.106 1805.843,1979.162 1759.335,1979.135 1759.72,1993.106 			"/>
			<polygon style="fill:#E89780;" points="1759.664,1988.902 1805.843,1979.162 1759.335,1979.135 			"/>
			<polygon style="fill:#FDAE97;" points="1894.753,1993.106 1894.753,1978.459 1850.376,1978.459 1851.871,1993.106 			"/>
			<polygon style="fill:#E89780;" points="1851.296,1987.47 1894.753,1978.459 1850.376,1978.459 			"/>
			
				<line style="fill:none;stroke:#332B27;stroke-width:0.9831;stroke-miterlimit:10;" x1="1766.886" y1="1567.637" x2="1760.917" y2="1625.328"/>
			<path style="fill:#FDAE97;" d="M1858.089,1772.879l7.935-4.51c1.131-0.643,1.64-2.003,1.207-3.23l-3.816-10.844l-4.117,16.001
				c-0.238,0.925-1.14,1.517-2.084,1.366l-1.365-0.217c-0.971-0.154-1.651-1.04-1.55-2.018l2.977-28.837l8.902-14.49l31.591,7.478
				c-2.507,8.126-2.958,29.958-3.039,37.918c-0.018,1.784-1.142,3.367-2.818,3.98l-16.01,5.857c-2.502,0.915-5.274,0.727-7.63-0.517
				l-10.145-5.36C1857.103,1774.914,1857.08,1773.453,1858.089,1772.879z"/>
			<path style="fill:#F74242;" d="M1884.305,1623.349c2.208-10.841,14.063-17.664,26.345-15.163
				c12.282,2.501,20.525,13.418,18.316,24.259l-28.293,103.441l-39.017-9.142C1861.59,1726.731,1884.305,1623.349,1884.305,1623.349
				z"/>
			<path style="fill:none;stroke:#F7E7DC;stroke-width:0.8097;stroke-miterlimit:10;" d="M1817.777,1453.022
				c-1.222,2.693-0.456,5.673,1.711,6.657c2.167,0.984,4.915-0.401,6.138-3.094s0.456-5.673-1.711-6.657
				C1821.747,1448.944,1818.999,1450.329,1817.777,1453.022z"/>
			<path style="fill:none;stroke:#F7E7DC;stroke-width:0.8097;stroke-miterlimit:10;" d="M1804.901,1448.802
				c-1.154,2.541-0.534,5.307,1.383,6.177c1.917,0.87,4.407-0.484,5.561-3.024c1.154-2.541,0.534-5.307-1.383-6.177
				C1808.544,1444.906,1806.054,1446.26,1804.901,1448.802z"/>
			
				<line style="fill:none;stroke:#F7E7DC;stroke-width:0.8097;stroke-miterlimit:10;" x1="1818.025" y1="1452.535" x2="1812.334" y2="1450.378"/>
			<path style="fill:#332B27;" d="M1807.864,2012.536h-65.137l0.077-2.905c0-0.42,0.038-0.841,0.077-1.262
				c0.841-8.601,8.065-15.252,16.857-15.252h46.674l1.147,15.252L1807.864,2012.536z"/>
			<path style="fill:#FFFFFF;" d="M1807.864,2012.536h-65.137l0.077-2.905c0-0.42,0.038-0.841,0.077-1.262h64.678L1807.864,2012.536
				z"/>
			
				<path style="fill:none;stroke:#FFFFFF;stroke-width:0.3947;stroke-linecap:round;stroke-linejoin:round;stroke-miterlimit:10;" d="
				M1761.407,1997.93c0,0-1.419-6.208-4.922-4.523s4.7,4.745,4.7,4.745l-4.878,3.37"/>
			
				<path style="fill:none;stroke:#FFFFFF;stroke-width:0.3947;stroke-linecap:round;stroke-linejoin:round;stroke-miterlimit:10;" d="
				M1761.407,1997.93c0,0,1.419-6.208,4.922-4.523s-4.7,4.745-4.7,4.745l4.878,3.37"/>
			<path style="fill:#332B27;" d="M1913.253,2012.536h-60.053l-0.306-4.167l-1.032-15.252h42.891
				c9.021,0,16.628,6.537,18.081,15.252c0.153,0.612,0.23,1.262,0.267,1.911L1913.253,2012.536z"/>
			<path style="fill:#FFFFFF;" d="M1913.253,2012.536h-60.053l-0.306-4.167h59.939c0.153,0.612,0.23,1.262,0.267,1.911
				L1913.253,2012.536z"/>
			
				<path style="fill:none;stroke:#FFFFFF;stroke-width:0.3947;stroke-linecap:round;stroke-linejoin:round;stroke-miterlimit:10;" d="
				M1898.184,1997.93c0,0-1.419-6.208-4.922-4.523s4.701,4.745,4.701,4.745l-4.878,3.37"/>
			
				<path style="fill:none;stroke:#FFFFFF;stroke-width:0.3947;stroke-linecap:round;stroke-linejoin:round;stroke-miterlimit:10;" d="
				M1898.184,1997.93c0,0,1.419-6.208,4.922-4.523c3.503,1.685-4.7,4.745-4.7,4.745l4.878,3.37"/>
			<polyline style="fill:none;stroke:#332B27;stroke-width:0.9831;stroke-miterlimit:10;" points="1861.655,1726.744 
				1882.922,1633.882 1868.616,1578.484 			"/>
		</g>
		<g>
			<path style="fill:#6ADB6A;" d="M1680.694,1440.124l48.641,488.977l-91.114,9.063l-48.641-488.977
				c0.885,8.896,6.705,15.642,12.996,15.016c6.29-0.626,10.667-8.386,9.783-17.282c0.885,8.896,6.705,15.642,12.996,15.016
				s10.668-8.386,9.783-17.282c0.885,8.896,6.705,15.642,12.996,15.016c6.29-0.626,10.667-8.386,9.783-17.282
				c0.885,8.896,6.705,15.642,12.996,15.016S1681.579,1449.02,1680.694,1440.124z"/>
			<path style="fill:#F9D6AF;" d="M1680.692,1440.125c0.847,8.513-3.561,15.961-9.852,16.587s-12.08-5.808-12.927-14.321
				c0.847,8.513-3.561,15.961-9.852,16.587c-6.291,0.626-12.08-5.808-12.927-14.321c0.847,8.513-3.561,15.961-9.852,16.587
				c-6.291,0.626-12.08-5.807-12.927-14.321c0.847,8.513-3.562,15.961-9.852,16.587c-6.291,0.626-12.08-5.808-12.927-14.321
				c-0.054-0.539-0.089-1.057-0.09-1.579l2.868-10.493l23.772-86.726l7.064-25.791l12.006,23.894l40.392,80.343l4.879,9.722
				C1680.57,1439.071,1680.638,1439.586,1680.692,1440.125z"/>
			<path style="fill:#6ADB6A;" d="M1635.199,1348.493c-2.862,1.646-6.002,2.684-9.33,3.015s-6.61-0.068-9.741-1.118l7.064-25.791
				L1635.199,1348.493z"/>
			<path style="fill:#E7888B;" d="M1698.037,2011.384l-12.925,1.286c-21.591,2.148-40.836-13.614-42.983-35.205l-0.632-6.357
				l91.114-9.063l0.632,6.357C1735.39,1989.992,1719.628,2009.236,1698.037,2011.384z"/>
			<path style="fill:#93ACBF;" d="M1732.256,1963.224l-90.179,8.971c-2.504,0.249-4.736-1.579-4.985-4.083l-4.423-44.467
				c-0.249-2.504,1.579-4.736,4.083-4.985l90.179-8.971c2.504-0.249,4.736,1.579,4.985,4.083l4.423,44.467
				C1736.588,1960.744,1734.76,1962.975,1732.256,1963.224z"/>
			
				<line style="fill:none;stroke:#BBDBF3;stroke-width:1.257;stroke-linecap:round;stroke-linejoin:round;stroke-miterlimit:10;" x1="1642.199" y1="1931.273" x2="1702.963" y2="1925.229"/>
			
				<line style="fill:none;stroke:#BBDBF3;stroke-width:1.257;stroke-linecap:round;stroke-linejoin:round;stroke-miterlimit:10;" x1="1653.683" y1="1945.876" x2="1728.273" y2="1938.456"/>
			
				<line style="fill:none;stroke:#BBDBF3;stroke-width:1.257;stroke-linecap:round;stroke-linejoin:round;stroke-miterlimit:10;" x1="1648.222" y1="1962.165" x2="1710.739" y2="1955.946"/>
			
				<line style="fill:none;stroke:#40A87B;stroke-width:1.6843;stroke-linecap:round;stroke-linejoin:round;stroke-miterlimit:10;" x1="1613.338" y1="1465.171" x2="1652.932" y2="1863.194"/>
			
				<line style="fill:none;stroke:#40A87B;stroke-width:1.6843;stroke-linecap:round;stroke-linejoin:round;stroke-miterlimit:10;" x1="1636.364" y1="1457.009" x2="1679.901" y2="1894.671"/>
			
				<line style="fill:none;stroke:#40A87B;stroke-width:1.6843;stroke-linecap:round;stroke-linejoin:round;stroke-miterlimit:10;" x1="1661.81" y1="1464.085" x2="1667.331" y2="1519.579"/>
			
				<line style="fill:none;stroke:#40A87B;stroke-width:1.6843;stroke-linecap:round;stroke-linejoin:round;stroke-miterlimit:10;" x1="1668.224" y1="1528.563" x2="1699.038" y2="1838.326"/>
		</g>
	</g>
	<g>
		<path style="fill:#E5F0F8;" d="M383.758,1151.757v111.699h140.201v-111.699H383.758z M517.278,1256.775h-0.004l-30.242-72.801
			l-35.54,60.384l-25.189-31.4l-35.849,43.814v-98.333h126.824V1256.775z"/>
		<path style="fill:#E5F0F8;" d="M453.862,1188.114c3.621,0,6.556-2.935,6.556-6.556s-2.935-6.556-6.556-6.556
			c-3.621,0-6.556,2.935-6.556,6.556S450.241,1188.114,453.862,1188.114z"/>
	</g>
	<path style="fill:#FFFFFF;" d="M1919.668,755.562H1796.66c-7.33,0-13.272,5.942-13.272,13.272v70.817
		c0,7.33,5.942,13.272,13.272,13.272h49.45v15.976h-32.544c-0.637,0-1.153,0.516-1.153,1.153v4.087c0,0.637,0.516,1.153,1.153,1.153
		h89.196c0.637,0,1.153-0.516,1.153-1.153v-4.087c0-0.637-0.516-1.153-1.153-1.153h-32.544v-15.976h49.45
		c7.33,0,13.272-5.942,13.272-13.272v-70.817C1932.94,761.504,1926.998,755.562,1919.668,755.562z"/>
	<path style="fill:#FFFFFF;" d="M2239.168,1142.476c12.311,17.43,35.244,22.719,53.834,13.655l45.699,64.703l11.212-7.919
		l-45.693-64.695c14.81-14.474,17.457-37.85,5.125-55.31c-13.677-19.365-40.493-24.056-59.858-10.378
		C2230.122,1096.209,2225.49,1123.11,2239.168,1142.476z M2301.72,1098.296c10.652,15.081,7.028,36.135-8.053,46.787
		c-15.167,10.712-36.135,7.027-46.787-8.054c-10.711-15.166-7.113-36.074,8.054-46.786
		C2270.015,1079.591,2291.009,1083.13,2301.72,1098.296z"/>
	<g>
		<path style="fill:#FFFFFF;" d="M1758.751,681.249c-2.71-1.899-5.687-3.288-8.789-4.169c-0.553,3.343-3.544,5.807-7.006,5.63
			c-3.462-0.177-6.179-2.923-6.388-6.305c-3.167,0.552-6.27,1.631-9.16,3.245c1.969,2.758,1.606,6.609-0.971,8.936
			c-2.577,2.327-6.445,2.295-8.989,0.056c-1.899,2.71-3.288,5.687-4.16,8.782c3.344,0.553,5.799,3.535,5.622,6.997
			c-0.177,3.462-2.932,6.187-6.314,6.396c0.56,3.176,1.639,6.279,3.253,9.168c2.75-1.977,6.61-1.622,8.945,0.963
			c2.327,2.577,2.294,6.462,0.047,8.996c2.71,1.899,5.687,3.288,8.781,4.16c0.553-3.343,3.544-5.807,7.006-5.63
			c3.462,0.177,6.179,2.923,6.388,6.305c3.167-0.552,6.27-1.632,9.16-3.245c-1.969-2.758-1.606-6.609,0.971-8.936
			c2.577-2.327,6.445-2.295,8.989-0.056c1.899-2.71,3.288-5.687,4.16-8.782c-3.343-0.553-5.799-3.535-5.622-6.997
			c0.177-3.462,2.932-6.187,6.314-6.396c-0.553-3.167-1.631-6.27-3.245-9.159c-2.767,1.976-6.618,1.614-8.945-0.963
			C1756.464,687.659,1756.495,683.791,1758.751,681.249z M1752.443,695.983c5.306,5.877,4.851,14.947-1.034,20.26
			c-5.885,5.313-14.955,4.842-20.26-1.034c-5.313-5.885-4.859-14.956,1.026-20.269
			C1738.06,689.627,1747.129,690.098,1752.443,695.983z"/>
		<path style="fill:#FFFFFF;" d="M1729.035,770.935c-3.887,7.848-13.403,11.069-21.262,7.176s-11.063-13.414-7.176-21.262
			c3.893-7.859,13.408-11.081,21.268-7.188S1732.928,763.076,1729.035,770.935z M1746.757,771.432
			c0.851-3.56,1.07-7.187,0.714-10.737c-3.664,0.791-7.414-1.284-8.641-4.917c-1.226-3.633,0.494-7.545,3.888-9.136
			c-1.857-3.034-4.229-5.787-7.063-8.103c-2.036,3.147-6.146,4.34-9.587,2.635c-3.441-1.705-4.982-5.697-3.713-9.224
			c-3.56-0.851-7.187-1.07-10.725-0.708c0.791,3.664-1.278,7.403-4.911,8.629c-3.634,1.226-7.557-0.5-9.148-3.894
			c-3.039,1.868-5.792,4.24-8.108,7.074c3.152,2.025,4.357,6.14,2.647,9.593c-1.705,3.441-5.714,4.988-9.235,3.708
			c-0.851,3.56-1.07,7.187-0.708,10.725c3.664-0.791,7.414,1.284,8.641,4.917c1.226,3.634-0.494,7.545-3.888,9.136
			c1.857,3.034,4.228,5.786,7.063,8.103c2.036-3.147,6.146-4.34,9.587-2.635s4.982,5.697,3.713,9.223
			c3.56,0.851,7.187,1.07,10.726,0.708c-0.791-3.664,1.278-7.403,4.911-8.629c3.634-1.226,7.557,0.5,9.148,3.894
			c3.033-1.857,5.786-4.228,8.103-7.063c-3.158-2.042-4.352-6.152-2.647-9.593C1739.232,771.686,1743.224,770.145,1746.757,771.432z
			"/>
	</g>
</g>
</svg>
